<svg version="1.1" id="Layer_1" xmlns="http://www.w3.org/2000/svg" xmlns:xlink="http://www.w3.org/1999/xlink" x="0px" y="0px"
	 width="100%" viewBox="0 0 500 500" enable-background="new 0 0 500 500" xml:space="preserve">
<path fill="#000000" opacity="1.000000" stroke="none" 
	d="
M284.000000,501.000000 
	C189.333359,501.000000 95.166710,501.000000 1.000051,501.000000 
	C1.000034,334.333405 1.000034,167.666794 1.000017,1.000140 
	C167.666565,1.000093 334.333130,1.000093 500.999756,1.000047 
	C500.999847,167.666519 500.999847,334.333038 500.999939,500.999786 
	C428.833344,501.000000 356.666656,501.000000 284.000000,501.000000 
M242.901382,284.665649 
	C242.802307,284.623535 242.703217,284.581421 242.604141,284.539307 
	C242.714676,284.709412 242.825211,284.879486 243.082214,285.331421 
	C243.185074,285.373566 243.287933,285.415710 243.390793,285.457886 
	C243.276794,285.283966 243.162781,285.110046 242.901382,284.665649 
M192.668762,254.946182 
	C193.134125,254.319427 193.599487,253.692673 194.774338,252.958725 
	C202.652298,249.219727 210.530243,245.480743 218.570999,241.664474 
	C214.290634,241.308502 214.109390,241.032059 214.278076,234.892166 
	C214.185577,234.928314 214.093094,234.964462 213.198807,235.001083 
	C209.722885,235.985107 206.246964,236.969116 202.295425,238.087769 
	C203.257034,239.344528 203.886963,240.167816 205.035477,241.668854 
	C201.972290,243.637833 199.042038,245.521393 196.111771,247.404938 
	C195.787430,247.016876 195.463074,246.628815 195.138733,246.240768 
	C195.431671,244.831726 195.724609,243.422699 196.297470,241.895828 
	C196.193817,241.924820 196.090164,241.953827 195.282257,242.065277 
	C193.425766,243.013702 191.569290,243.962143 189.859680,244.835541 
	C191.267349,247.631180 192.604843,250.287445 193.322937,253.061859 
	C192.859665,253.685562 192.396408,254.309265 191.345154,255.018005 
	C190.770309,255.468491 190.195465,255.918976 189.620621,256.369476 
	C189.999054,256.756226 190.377487,257.143005 190.755905,257.529755 
	C191.183929,256.704376 191.611938,255.878983 192.668762,254.946182 
M362.015289,101.500496 
	C362.139496,101.774445 362.263702,102.048386 362.387909,102.322319 
	C362.511353,102.232712 362.747803,102.073067 362.741943,102.063637 
	C362.514313,101.696381 362.264618,101.342834 361.923859,100.364403 
	C360.981201,100.226273 360.038544,100.088142 359.095856,99.950012 
	C359.075775,100.306320 359.055725,100.662636 359.035645,101.018944 
	C360.017517,101.018944 360.999420,101.018944 362.015289,101.500496 
M401.956299,225.828415 
	C401.907043,227.217834 401.857788,228.607239 401.076324,229.984100 
	C400.443420,229.820374 399.818481,229.608170 399.175995,229.502792 
	C397.728638,229.265457 396.272583,229.080994 394.820038,228.875031 
	C395.064789,230.326920 395.016815,231.918259 395.625793,233.196640 
	C396.452728,234.932587 397.782318,236.429108 398.714752,237.767700 
	C396.664032,241.069199 394.797211,244.074600 392.930420,247.079987 
	C393.321625,247.416641 393.712830,247.753311 394.104034,248.089966 
	C395.666901,247.523560 397.229797,246.957153 398.792664,246.390732 
	C399.198395,246.737839 399.604095,247.084946 400.009796,247.432068 
	C398.731964,249.087112 397.697998,251.035919 396.128113,252.339188 
	C392.251343,255.557556 392.033173,256.954224 395.869049,260.478180 
	C398.600098,262.987091 398.753815,265.363098 396.360931,268.209412 
	C395.104126,269.704315 394.287262,271.569122 393.273224,273.264404 
	C396.810669,274.252533 399.549530,275.017609 402.874420,275.946350 
	C402.874420,271.549957 402.874420,267.621490 402.944427,262.798981 
	C402.930206,254.950943 402.915985,247.102890 402.958405,238.443512 
	C402.972687,237.630417 402.986969,236.817307 403.001038,235.066345 
	C402.984802,227.088745 402.968567,219.111130 402.965942,210.511276 
	C402.963959,210.303818 402.962006,210.096359 402.976257,208.966370 
	C402.985718,197.992493 403.028015,187.018417 402.961578,176.044998 
	C402.953583,174.726486 402.356049,173.411530 401.725128,171.446686 
	C399.290558,168.054520 396.684509,168.397400 393.195465,171.459915 
	C393.137604,181.284515 393.079742,191.109131 393.088409,201.715698 
	C394.630646,204.783096 396.172852,207.850510 398.134552,211.752213 
	C393.490814,220.288559 393.359467,220.613297 393.990753,222.499374 
	C396.789825,221.327713 396.841217,215.352036 401.953308,218.745331 
	C401.908661,219.495789 401.864014,220.246231 401.177307,221.082642 
	C400.554138,221.747360 399.930969,222.412079 399.307800,223.076782 
	C400.145599,223.718964 400.983429,224.361130 401.956299,225.828415 
M311.600922,303.696594 
	C313.400604,301.464386 315.200317,299.232208 317.698669,296.696228 
	C319.592407,296.299805 321.486145,295.903351 322.191437,295.755707 
	C322.980255,293.675690 323.488281,292.335999 324.740387,290.918304 
	C327.486145,290.211975 330.231903,289.505676 334.204803,288.483673 
	C336.257111,286.347168 339.327209,283.152649 342.395325,279.956207 
	C343.460785,278.846191 344.357330,277.480682 345.611389,276.660431 
	C352.797058,271.960236 358.562500,265.944672 362.276306,258.213989 
	C363.429779,255.812836 364.802185,251.996368 363.731476,250.374649 
	C361.716675,247.322983 357.998047,245.396255 354.436371,242.592468 
	C352.918762,239.735977 351.401154,236.879471 349.800446,233.570938 
	C349.649536,233.287262 349.423096,233.090530 348.840576,232.556763 
	C348.561188,232.371384 348.281830,232.186005 347.998932,231.228119 
	C347.605408,224.871597 342.095734,231.652725 340.433838,227.705460 
	C341.301849,222.304337 347.022308,226.767715 349.771790,223.856644 
	C341.990997,218.232742 334.223114,219.778595 326.390503,223.036255 
	C325.734833,223.308945 325.189240,223.846130 324.338806,224.436569 
	C326.150330,224.957916 327.494263,225.344711 330.143250,226.107071 
	C326.437897,229.573334 323.458557,232.360397 319.689240,235.886459 
	C319.529968,233.509262 319.453949,232.375107 319.377960,231.240936 
	C318.983215,230.919800 318.588470,230.598663 318.193695,230.277527 
	C312.179077,235.765884 306.164429,241.254227 299.813507,247.049438 
	C305.244537,250.668900 304.120178,253.241409 299.053650,255.615326 
	C297.670746,256.263306 296.938965,258.296143 295.901917,259.688599 
	C295.080597,260.791443 294.249451,261.886963 293.227570,263.245056 
	C291.570770,261.203613 290.355469,259.706177 288.927368,257.946503 
	C282.676849,264.306976 276.651001,270.438812 270.010223,277.196381 
	C272.744293,277.850220 274.101013,278.174683 276.151672,278.665100 
	C272.273560,282.847900 268.859711,286.530029 265.445831,290.212158 
	C265.059326,289.874237 264.672791,289.536346 264.286285,289.198425 
	C264.529449,287.080719 264.772583,284.963013 265.036011,282.668793 
	C262.018372,285.509216 259.422058,287.953064 256.517853,290.686737 
	C259.824646,291.191559 263.713745,291.059631 263.000000,296.000000 
	C263.000000,296.000000 262.996948,296.003662 262.555695,296.215973 
	C262.281494,296.415680 262.093811,296.677429 261.496338,297.000305 
	C261.496338,297.000305 261.000000,297.000000 260.615845,296.528717 
	C257.744904,299.352081 254.873993,302.175446 251.503357,305.000000 
	C251.503357,305.000000 251.003647,305.001221 250.668137,304.506500 
	C250.108505,304.338074 249.548859,304.169647 248.555695,303.785004 
	C248.285461,303.586548 248.100235,303.327332 247.988953,302.238220 
	C247.829575,299.054626 246.207565,297.593170 242.378128,297.728943 
	C238.886658,294.169373 235.395203,290.609802 231.774811,286.489075 
	C231.203415,286.019653 230.632019,285.550232 230.007812,285.017090 
	C230.007812,285.017090 229.954346,284.953949 229.968689,284.223419 
	C227.927292,280.957336 224.332550,277.488708 231.181824,274.461578 
	C225.463058,274.031708 219.744293,273.601837 214.025528,273.171967 
	C213.993805,273.592834 213.962067,274.013702 213.930328,274.434570 
	C215.872467,275.076447 217.814590,275.718353 219.854553,276.392548 
	C219.304428,278.477417 218.891220,280.043365 218.739120,280.619751 
	C217.039200,283.480377 212.726578,278.739441 212.996979,284.003662 
	C212.996979,284.003662 212.972092,284.028870 212.544815,284.216309 
	C212.276871,284.403107 212.104553,284.655273 212.000412,284.997375 
	C212.000412,284.997375 211.970764,285.019257 211.208984,284.980804 
	C210.651367,283.952576 209.771347,282.972504 209.608917,281.885254 
	C209.340805,280.090485 209.536118,278.226471 209.536118,276.391663 
	C209.067017,276.138306 208.597916,275.884949 208.128799,275.631622 
	C204.226578,279.822113 200.324371,284.012604 196.422150,288.203094 
	C197.126801,288.282776 197.831467,288.362488 198.536118,288.442169 
	C200.361786,290.967682 202.187469,293.493195 204.005341,296.761810 
	C204.003555,297.505035 204.001785,298.248230 203.282394,299.069061 
	C201.259628,300.700256 198.422028,301.952393 197.438370,304.066956 
	C196.411209,306.275085 196.167679,309.922455 197.349365,311.865540 
	C200.027802,316.269806 203.792664,320.013336 207.215866,324.146362 
	C209.404007,323.186951 218.793106,328.441559 218.600967,332.054291 
	C218.299820,337.717468 222.192322,339.827545 225.296951,342.757294 
	C229.692108,346.904816 233.868683,351.473328 238.869537,354.744629 
	C246.161438,359.514618 254.765915,361.409393 262.446259,356.467010 
	C270.358704,351.375244 277.235565,344.673309 284.548676,338.655426 
	C284.773041,338.470764 284.973999,338.017578 284.909912,337.757629 
	C283.371155,331.515381 286.963715,329.809479 292.160645,329.467529 
	C292.458893,329.447937 292.781464,329.202942 293.021484,328.984528 
	C296.280243,326.019135 299.526398,323.039856 302.855530,319.990875 
	C301.655426,319.066650 300.955902,318.527924 299.920593,317.730621 
	C301.770966,317.512360 303.110077,317.354401 304.449219,317.196442 
	C304.024323,316.849396 303.599457,316.502380 303.174561,316.155365 
	C304.116364,313.768219 305.058197,311.381042 306.666260,308.997986 
	C307.110443,308.995911 307.554596,308.993835 308.068176,309.693542 
	C308.658203,310.757660 309.248230,311.821808 309.862701,312.929993 
	C314.430725,310.456726 313.058868,307.756927 310.994446,304.494812 
	C310.994446,304.494812 310.997559,303.998169 311.600922,303.696594 
M353.892303,226.722321 
	C353.806396,226.672638 353.720490,226.622955 353.634583,226.573273 
	C353.756378,226.715500 353.878204,226.857727 353.922668,227.730362 
	C353.651245,228.504639 353.212250,229.264938 353.146179,230.056381 
	C353.036896,231.365433 353.167938,232.694534 353.197693,234.015198 
	C354.602264,233.711609 356.064575,233.558197 357.390106,233.048920 
	C358.204773,232.735947 358.810272,231.878677 360.581085,230.326996 
	C357.935944,228.990021 355.967957,227.995316 353.892303,226.722321 
M90.663109,104.524147 
	C90.069901,104.428848 89.476692,104.333557 88.883484,104.238258 
	C88.860207,104.447388 88.836929,104.656509 88.813652,104.865631 
	C89.542534,104.910316 90.271423,104.955002 90.920715,105.739471 
	C89.247383,108.468758 87.574043,111.198051 85.610519,114.088783 
	C85.764664,114.092155 85.918808,114.095528 86.875076,114.020859 
	C89.104111,113.507637 91.333153,112.994423 93.469673,112.502502 
	C93.896820,110.975372 94.272064,109.633827 94.655975,108.261253 
	C96.135803,108.821892 97.245918,109.242470 98.602470,109.756409 
	C97.683739,107.396507 96.951714,105.516174 96.184975,103.546677 
	C94.907990,103.904686 92.953987,104.452492 90.663109,104.524147 
M261.762604,233.570831 
	C261.406799,233.587372 261.050964,233.603912 260.695160,233.620453 
	C261.122498,233.754547 261.549866,233.888641 261.978790,234.775055 
	C260.848785,237.350769 259.718781,239.926483 258.655273,242.350616 
	C264.397095,244.394791 269.924713,246.362717 275.486542,248.342819 
	C275.359589,244.876556 274.961700,242.038925 270.788147,240.985077 
	C268.922760,240.514038 266.833435,238.326736 270.537781,235.955414 
	C267.393951,235.226395 264.704254,234.602692 261.762604,233.570831 
M63.825405,247.918808 
	C65.842369,246.356735 68.022095,244.953552 69.787071,243.145493 
	C70.395996,242.521667 69.972115,240.889679 70.020012,239.718231 
	C69.038025,239.956528 68.032356,240.125336 67.079765,240.449921 
	C65.749229,240.903290 64.458321,241.472931 63.022678,241.235947 
	C63.065052,238.826767 63.107430,236.417587 63.862144,234.094696 
	C65.712959,234.715363 67.563774,235.336029 70.196411,236.218872 
	C68.987350,231.461365 67.186577,228.718658 63.000000,227.147644 
	C63.048820,225.433838 63.097641,223.720016 63.819790,221.912094 
	C65.794777,219.982117 68.133865,218.296158 69.638481,216.050980 
	C71.037537,213.963318 72.140503,211.325592 72.332397,208.849335 
	C72.824890,202.493988 66.539459,201.383255 63.064503,197.333923 
	C63.103672,196.891724 63.142845,196.449509 63.848103,195.870102 
	C66.241188,193.410370 68.634270,190.950638 71.842888,187.652664 
	C72.891510,179.006012 70.810905,174.834503 63.030331,171.145157 
	C63.075802,169.432312 63.121273,167.719482 63.836777,165.915054 
	C66.604149,163.293869 70.432846,161.159546 71.907318,157.945267 
	C74.580002,152.118973 71.668297,148.215088 63.031616,143.167923 
	C63.074261,141.780807 63.116909,140.393692 63.856606,138.907959 
	C64.837479,138.306061 65.748764,137.398499 66.811584,137.156540 
	C70.854485,136.236191 72.493172,133.864243 72.272270,129.735931 
	C72.010551,124.844643 72.096771,119.934746 72.835594,115.014786 
	C75.972862,114.760536 79.110138,114.506287 82.247406,114.252045 
	C82.208565,113.968117 82.169716,113.684196 82.130875,113.400269 
	C81.215584,112.988838 80.300293,112.577400 78.368301,111.708939 
	C80.860550,111.149155 82.209885,110.846077 83.523384,110.551056 
	C83.130867,108.579704 82.790131,106.868378 82.366058,104.738518 
	C76.846916,105.274796 71.049103,105.838150 65.251297,106.401497 
	C65.099640,107.065796 64.947975,107.730095 64.796318,108.394394 
	C66.240204,108.967499 67.675919,109.992851 69.129684,110.019112 
	C72.113396,110.072998 75.132332,109.532776 76.522247,113.273956 
	C74.930145,113.869553 73.456276,114.420914 71.414879,115.526382 
	C71.128418,117.844452 70.841965,120.162514 70.543770,122.575607 
	C67.831444,120.530426 65.486382,118.762184 63.018784,116.113701 
	C63.012524,113.742470 63.006260,111.371231 63.295624,108.897354 
	C63.197083,108.931572 63.098541,108.965782 62.269032,109.454987 
	C62.179909,110.943954 62.013279,112.432907 62.012936,113.921890 
	C62.002930,157.484390 62.009552,201.046890 62.013329,244.609390 
	C62.013844,250.526764 62.013397,256.444153 62.013397,262.361511 
	C62.387699,262.361176 62.762001,262.360809 63.136303,262.360474 
	C63.136303,257.575439 63.136303,252.790405 63.825405,247.918808 
M173.231888,81.047028 
	C155.781418,86.950821 138.330933,92.854614 121.632660,98.503922 
	C121.632660,101.231178 121.632660,104.287178 121.632660,107.598747 
	C128.355087,105.674721 135.908493,103.512863 143.461914,101.350998 
	C143.391434,101.003464 143.320953,100.655930 143.250473,100.308395 
	C141.669708,100.308395 140.088959,100.308395 138.508209,100.308395 
	C138.447433,99.909805 138.386658,99.511215 138.325882,99.112617 
	C141.240311,98.599869 144.782379,96.807510 146.928925,97.860352 
	C150.572144,99.647278 153.591782,99.057549 156.780136,97.921837 
	C162.613678,95.843887 168.372879,93.545853 174.089706,91.163536 
	C174.970306,90.796562 175.460266,89.492157 176.321808,88.373383 
	C170.797516,87.046379 173.631866,83.771866 174.817642,81.123421 
	C181.114258,81.681114 187.642792,83.524643 193.643631,82.442352 
	C199.903351,81.313370 205.863159,77.738495 211.572922,74.550316 
	C218.055573,70.930573 224.115631,66.553955 230.184906,62.619473 
	C229.043869,61.654846 227.587692,60.423794 226.087540,59.155571 
	C227.138809,57.492081 227.976410,56.166695 229.488861,53.773441 
	C227.213043,54.401779 225.940536,54.516792 224.907181,55.074703 
	C213.741653,61.102932 202.695602,67.358147 191.441101,73.213448 
	C185.801056,76.147751 179.799911,78.387985 173.231888,81.047028 
M269.585419,402.188446 
	C279.280060,398.670746 287.958954,393.502655 295.378113,386.564148 
	C293.628174,384.209534 291.997101,382.014923 290.082428,379.438690 
	C279.850128,386.381165 269.920593,394.537964 256.359070,395.524445 
	C257.529419,397.279205 258.294312,398.425995 258.724792,399.071411 
	C257.739563,401.004761 257.010651,402.435120 256.281738,403.865479 
	C257.945435,404.164459 259.672211,404.895813 261.258514,404.664398 
	C263.847015,404.286835 266.343903,403.281311 269.585419,402.188446 
M308.073212,370.989746 
	C306.809326,369.253723 305.545441,367.517700 304.281555,365.781677 
	C304.756653,365.379913 305.231720,364.978149 305.706787,364.576385 
	C307.844666,366.320007 309.982513,368.063599 312.170746,369.848267 
	C313.509827,367.227264 314.683868,364.929352 315.960815,362.429993 
	C314.553406,361.557343 313.373901,360.826019 311.629364,359.744354 
	C312.985474,359.082703 313.817596,358.299011 314.544891,358.386536 
	C317.880157,358.787750 319.190430,356.789886 320.417511,354.197754 
	C326.611603,341.112732 327.234253,327.067932 327.674591,312.985535 
	C327.679321,312.835205 327.181091,312.669159 328.004242,313.164978 
	C326.455505,314.064178 325.138000,314.736267 323.917969,315.553833 
	C319.036469,318.825165 318.905731,321.045746 322.856873,325.361542 
	C323.941803,326.546600 324.671265,328.332916 324.932098,329.945496 
	C325.747803,334.988922 322.207245,338.272430 318.874634,340.624268 
	C315.544098,342.974640 315.999664,344.800568 317.436432,347.016327 
	C311.572876,354.141998 305.855042,361.090515 299.319092,369.033295 
	C305.669739,368.229553 304.329803,372.034485 304.447113,374.876038 
	C304.920502,375.066071 305.393921,375.256104 305.867310,375.446136 
	C306.826355,373.998871 307.785370,372.551605 308.073212,370.989746 
M271.453674,62.692989 
	C273.375214,63.218994 275.296722,63.745003 277.648712,64.388840 
	C277.668182,64.447014 277.930298,65.230278 278.207520,66.058640 
	C280.070068,65.242317 281.519379,64.607117 282.968658,63.971924 
	C283.314331,64.229759 283.660004,64.487602 284.005676,64.745445 
	C283.354126,66.029060 282.702606,67.312675 281.869415,68.954193 
	C287.311920,69.300308 290.831757,79.497177 298.863068,72.174545 
	C301.185211,70.057312 301.754822,69.168762 299.187042,67.664330 
	C289.364197,61.909256 279.455841,56.300148 269.577271,50.635315 
	C267.337433,55.288483 267.703857,56.348789 271.381653,56.383682 
	C272.519684,56.394482 273.652496,56.953754 274.787720,57.261909 
	C273.979431,58.217442 273.141388,59.149822 272.374146,60.137272 
	C271.919678,60.722240 271.577057,61.394138 271.453674,62.692989 
M338.534790,85.006493 
	C332.463318,82.792374 326.178467,81.023491 320.378265,78.243408 
	C314.127930,75.247589 312.553955,75.668945 310.939758,82.782013 
	C322.821228,88.381569 322.821228,88.381569 328.935669,83.978691 
	C329.246094,89.045555 332.798004,90.051460 336.745880,91.054947 
	C338.409180,91.477745 339.643616,93.520493 341.119873,94.771561 
	C342.022644,95.536636 343.014404,96.196655 344.171814,97.056633 
	C346.132385,88.431358 345.711365,87.490982 338.534790,85.006493 
M244.479050,230.997894 
	C236.667221,231.182907 228.855377,231.367920 220.849243,231.557541 
	C222.649612,233.206131 224.829330,234.339081 224.762344,235.318359 
	C224.617844,237.430618 223.319290,239.463928 222.780334,240.811188 
	C232.890549,240.811188 244.183762,240.811188 255.576889,240.811188 
	C252.942856,234.548752 247.126114,241.446762 243.318115,237.944748 
	C243.878098,235.888535 244.543243,233.446136 244.479050,230.997894 
M242.832733,114.337143 
	C243.674637,117.082214 245.744186,119.215836 241.861862,122.277328 
	C238.712463,124.760849 236.328461,124.232712 234.020630,123.563049 
	C234.020630,126.524269 234.020630,129.108109 234.020630,131.910217 
	C235.755356,131.409088 237.563782,130.886673 240.273407,130.103928 
	C240.273407,136.880798 240.273407,143.137039 240.273407,149.393265 
	C240.794189,149.376953 241.314972,149.360641 241.835754,149.344330 
	C241.835754,140.794632 241.835754,132.244934 241.835754,123.726791 
	C248.175018,123.726791 253.739944,123.726791 259.322205,123.726791 
	C258.628387,114.557533 258.150055,114.088043 249.509140,114.007301 
	C247.517334,113.988686 245.524826,114.043587 242.832733,114.337143 
M376.232727,106.200256 
	C378.342804,106.723907 380.452850,107.247559 382.616516,107.784508 
	C382.342499,104.557800 382.410004,102.034698 381.801941,99.686539 
	C381.526062,98.621269 380.039032,97.435738 378.878418,97.117035 
	C375.734283,96.253654 372.481201,95.755615 369.247894,95.268173 
	C368.328156,95.129501 367.328125,95.523277 367.240265,95.536926 
	C368.991852,98.574661 370.479309,101.465828 372.295288,104.133339 
	C372.923889,105.056709 374.368317,105.424667 376.232727,106.200256 
M240.901321,407.615631 
	C245.176437,407.139465 249.451569,406.663300 253.726685,406.187134 
	C253.640717,405.694763 253.554749,405.202393 253.468781,404.710022 
	C242.687241,404.549988 242.687241,404.549988 241.278824,398.169525 
	C238.519287,398.978363 235.790955,399.778015 233.145737,400.553345 
	C233.412521,402.576874 233.596832,403.974762 233.783386,405.389771 
	C231.590073,405.606781 229.731415,405.790680 227.872757,405.974579 
	C227.902710,406.591492 227.932663,407.208435 227.962616,407.825348 
	C232.039734,407.825348 236.116837,407.825348 240.901321,407.615631 
M99.972084,264.481628 
	C99.972084,233.898544 99.972084,203.315475 99.972084,172.732391 
	C99.751625,172.734055 99.531174,172.735718 99.310715,172.737366 
	C99.310715,207.279160 99.310715,241.820938 99.310715,276.362732 
	C99.535553,276.365387 99.760399,276.368073 99.985237,276.370758 
	C99.985237,272.737915 99.985237,269.105042 99.972084,264.481628 
M240.163773,165.289307 
	C241.890930,165.161377 243.618088,165.033432 246.850281,164.793991 
	C242.102402,159.582428 243.169250,151.323578 234.355835,151.752472 
	C234.355835,154.021378 234.355835,156.230377 234.355835,157.268829 
	C237.213074,158.543060 239.461853,159.223831 241.227859,160.548325 
	C241.699707,160.902222 240.695770,163.223816 240.163773,165.289307 
M424.540436,111.868950 
	C426.249359,109.932693 427.958252,107.996445 429.514587,106.233055 
	C425.791687,105.933052 421.626801,105.597420 418.542908,105.348907 
	C417.565063,107.739113 416.607025,109.332672 416.345459,111.033356 
	C416.212982,111.894501 417.387207,113.797607 417.886688,113.768890 
	C420.007965,113.646988 422.097778,112.978088 424.540436,111.868950 
M359.993774,144.517899 
	C359.993774,140.364090 359.993774,136.210281 359.993774,132.056473 
	C359.649231,132.077927 359.304657,132.099380 358.960114,132.120834 
	C358.960114,154.842682 358.960114,177.564514 358.960114,200.286362 
	C359.304047,200.286087 359.648010,200.285812 359.991943,200.285538 
	C359.991943,182.028122 359.991943,163.770691 359.993774,144.517899 
M235.276230,50.769581 
	C236.245804,50.249287 237.215393,49.728996 238.114716,49.246407 
	C239.377304,51.263031 240.483856,53.030441 241.735779,55.030041 
	C243.607712,54.093987 245.176163,53.309685 247.322342,52.236496 
	C245.370483,49.414845 243.651535,46.929909 241.914139,44.418293 
	C239.148422,46.047478 236.631134,47.484829 234.200012,49.055584 
	C234.020874,49.171329 234.463135,50.248833 235.276230,50.769581 
M414.089661,109.637589 
	C413.460754,107.821617 412.831848,106.005653 412.207825,104.203766 
	C409.769226,103.982185 407.550049,103.780548 403.602966,103.421913 
	C406.366821,107.220703 408.295135,109.871109 410.302368,112.629929 
	C411.837433,111.722366 413.086639,110.983795 414.089661,109.637589 
M261.363190,45.153019 
	C260.640533,45.163715 259.308105,45.069504 259.285553,45.200657 
	C258.863678,47.652767 258.597351,50.131641 258.298401,52.604904 
	C258.655029,52.845081 259.011627,53.085258 259.368256,53.325432 
	C261.450317,51.774323 263.532379,50.223213 266.159698,48.265877 
	C264.346497,47.055378 263.159180,46.262745 261.363190,45.153019 
M108.050240,105.436989 
	C106.767403,104.249260 105.484566,103.061531 104.201729,101.873802 
	C103.895538,102.133408 103.589340,102.393021 103.283150,102.652626 
	C104.350540,105.306534 105.417931,107.960442 106.674065,111.083633 
	C108.078545,110.651886 109.846344,110.108444 113.014351,109.134560 
	C110.929565,107.563324 109.782509,106.698814 108.050240,105.436989 
M430.466766,152.610001 
	C430.466766,140.273483 430.466766,127.936966 430.466766,115.600456 
	C430.317139,115.598145 430.167480,115.595840 430.017853,115.593536 
	C430.017853,127.683601 430.017853,139.773666 430.466766,152.610001 
M208.999420,181.291046 
	C208.999420,171.345062 208.999420,161.399094 208.999420,151.453110 
	C208.747421,151.455612 208.495422,151.458115 208.243423,151.460617 
	C208.243423,163.160873 208.243423,174.861130 208.243423,186.561386 
	C208.495422,186.562637 208.747421,186.563873 208.999420,186.565109 
	C208.999420,185.119370 208.999420,183.673645 208.999420,181.291046 
M283.671112,243.054199 
	C279.242767,250.657669 279.242767,250.657669 282.809875,252.494263 
	C284.035156,249.682404 285.270935,246.846451 286.574707,243.854416 
	C286.159027,243.699875 285.260498,243.365829 283.671112,243.054199 
M400.209900,105.883293 
	C400.339874,104.728386 400.716675,102.602364 400.562988,102.563301 
	C397.994080,101.910316 395.358856,101.518227 392.738373,101.068054 
	C393.542206,102.746796 395.533203,103.571938 395.492249,104.279518 
	C395.236450,108.700584 397.639679,106.777519 400.209900,105.883293 
M208.999420,129.528107 
	C208.999420,125.887749 208.999420,122.247398 208.999420,118.607040 
	C208.764374,118.613739 208.529327,118.620430 208.294281,118.627129 
	C208.294281,128.879242 208.294281,139.131348 208.294281,149.383453 
	C208.529327,149.384171 208.764374,149.384888 208.999420,149.385605 
	C208.999420,143.096695 208.999420,136.807800 208.999420,129.528107 
M290.010712,136.476761 
	C290.010712,130.377502 290.010712,124.278229 290.010712,118.178963 
	C289.780914,118.187271 289.551117,118.195580 289.321320,118.203880 
	C289.321320,128.069122 289.321320,137.934372 289.321320,147.799606 
	C289.551208,147.800751 289.781097,147.801895 290.010986,147.803040 
	C290.010986,144.356583 290.010986,140.910110 290.010712,136.476761 
M293.615540,252.402496 
	C292.714020,253.608444 291.812500,254.814407 290.910980,256.020355 
	C291.711029,256.748718 292.511078,257.477081 293.311127,258.205444 
	C294.877716,255.580307 296.444336,252.955200 298.136993,250.118820 
	C296.806427,250.645233 295.349762,251.221558 293.615540,252.402496 
M245.024841,194.010651 
	C244.022385,194.112915 243.019913,194.215179 242.017456,194.317444 
	C242.030746,194.440536 242.044022,194.563614 242.057312,194.686707 
	C250.089478,194.686707 258.121643,194.686707 266.153809,194.686707 
	C266.153503,194.462585 266.153168,194.238449 266.152863,194.014328 
	C259.405548,194.014328 252.658264,194.014328 245.024841,194.010651 
M254.403519,232.017929 
	C253.663605,232.475250 252.923691,232.932571 252.183762,233.389893 
	C252.919907,234.142715 253.655792,235.514694 254.392273,235.514999 
	C255.777679,235.515579 257.163452,234.724518 258.549042,234.262604 
	C258.449463,233.881607 258.349915,233.500610 258.250336,233.119614 
	C257.212128,232.754501 256.173950,232.389389 254.403519,232.017929 
M250.768875,292.284851 
	C249.447220,291.507568 248.125580,290.730316 246.803925,289.953033 
	C246.454498,290.373047 246.105072,290.793060 245.755646,291.213074 
	C246.677231,292.361969 247.477142,293.669830 248.612778,294.539062 
	C248.871078,294.736755 250.291916,293.415619 250.768875,292.284851 
M241.662064,287.417114 
	C240.711319,288.527954 239.760559,289.638794 238.192871,291.470490 
	C244.016098,290.511139 244.032089,290.489471 241.662064,287.417114 
M350.706177,95.026100 
	C352.136017,95.763687 353.565857,96.501274 354.995697,97.238853 
	C355.220184,96.470818 355.444641,95.702774 355.669128,94.934731 
	C354.193268,94.793030 352.717438,94.651321 350.706177,95.026100 
M253.417786,399.909515 
	C253.818909,399.208923 254.220032,398.508362 254.621170,397.807770 
	C253.275284,397.591492 251.929413,397.375183 250.583527,397.158905 
	C250.448471,397.558685 250.313416,397.958435 250.178360,398.358215 
	C251.010788,398.884949 251.843216,399.411652 253.417786,399.909515 
M385.054199,100.932373 
	C386.119232,101.547859 387.184265,102.163345 388.249298,102.778839 
	C388.483521,102.080376 388.717712,101.381912 388.951935,100.683456 
	C387.680237,100.535179 386.408539,100.386909 385.054199,100.932373 
M391.344482,109.874207 
	C391.176880,108.678970 391.009247,107.483727 390.841644,106.288490 
	C390.182709,106.530266 389.523743,106.772041 388.864807,107.013817 
	C389.470367,107.924103 390.075958,108.834389 391.344482,109.874207 
M326.896332,306.235657 
	C326.480286,305.085632 326.064270,303.935608 325.544739,302.499390 
	C323.959015,306.128448 323.959015,306.128448 326.896332,306.235657 
M71.792496,171.027191 
	C70.980591,171.256119 70.168678,171.485031 69.356773,171.713959 
	C69.748398,172.326370 70.140022,172.938782 70.531647,173.551193 
	C71.000381,172.929276 71.469109,172.307373 71.792496,171.027191 
M265.202881,123.950241 
	C265.608124,123.574448 266.013336,123.198654 266.418579,122.822861 
	C265.144012,122.628685 263.869415,122.434502 262.594849,122.240326 
	C262.549164,122.633537 262.503479,123.026749 262.457794,123.419960 
	C263.135101,123.606941 263.812378,123.793930 265.202881,123.950241 
M254.525604,43.171726 
	C254.525604,43.959328 254.525604,44.746933 254.525604,45.534534 
	C255.076965,45.314430 255.628311,45.094322 256.179657,44.874218 
	C255.774445,44.148411 255.369217,43.422604 254.525604,43.171726 
M300.558197,76.639954 
	C301.441803,77.026657 302.325439,77.413361 303.209045,77.800064 
	C303.304993,77.380821 303.400909,76.961586 303.496857,76.542351 
	C302.678192,76.433006 301.859497,76.323662 300.558197,76.639954 
M233.980087,279.755188 
	C234.827499,279.599518 235.674911,279.443848 236.522308,279.288177 
	C236.347748,278.825836 236.173172,278.363525 235.998596,277.901184 
	C235.168732,278.371918 234.338867,278.842682 233.980087,279.755188 
M318.955933,329.639221 
	C318.434143,329.885925 317.912384,330.132629 317.390625,330.379333 
	C317.812866,330.798584 318.235077,331.217834 318.657318,331.637115 
	C318.902191,331.114502 319.147064,330.591858 318.955933,329.639221 
M397.097748,278.731995 
	C397.042755,278.232422 396.987762,277.732849 396.932770,277.233246 
	C396.485382,277.348145 396.038025,277.463043 395.590668,277.577942 
	C395.893433,278.004456 396.196198,278.430969 397.097748,278.731995 
M231.283157,51.409447 
	C230.994354,51.621090 230.705551,51.832733 230.416733,52.044365 
	C230.594223,52.230816 230.771713,52.417271 230.949219,52.603737 
	C231.176483,52.325188 231.403748,52.046638 231.283157,51.409447 
M318.196228,309.616486 
	C318.200073,309.216125 318.207916,308.815521 318.186859,308.416473 
	C318.186249,308.405487 317.875183,308.410858 317.708923,308.408630 
	C317.703583,308.810333 317.698212,309.212067 318.196228,309.616486 
M111.727631,100.469299 
	C112.126587,100.598274 112.520828,100.748848 112.928490,100.838028 
	C113.010139,100.855904 113.142944,100.639954 113.252167,100.531807 
	C112.853317,100.402786 112.454460,100.273766 111.727631,100.469299 
M117.352623,107.670090 
	C117.471802,107.422058 117.590981,107.174026 117.710152,106.925987 
	C117.472389,106.854088 117.234627,106.782196 116.996872,106.710304 
	C116.970840,107.051559 116.944809,107.392807 117.352623,107.670090 
M369.336853,103.624046 
	C369.412720,103.881851 369.488586,104.139656 369.564423,104.397461 
	C369.850403,104.117767 370.136383,103.838066 370.422363,103.558365 
	C370.166443,103.476227 369.910553,103.394081 369.336853,103.624046 
M218.245361,233.531799 
	C217.852432,233.403320 217.464218,233.253647 217.062592,233.164337 
	C216.983078,233.146667 216.851990,233.360901 216.744705,233.468185 
	C217.137543,233.596390 217.530365,233.724609 218.245361,233.531799 
M117.032257,99.157211 
	C117.185211,99.412514 117.289322,99.802467 117.506325,99.881165 
	C117.684883,99.945923 117.997353,99.641449 118.250481,99.500618 
	C117.997215,99.359528 117.743942,99.218430 117.032257,99.157211 
M114.259712,107.814812 
	C114.374825,107.973190 114.489929,108.131577 114.605034,108.289955 
	C114.581680,108.069504 114.558327,107.849052 114.259712,107.814812 
M177.819016,88.739616 
	C177.977844,88.624519 178.136658,88.509430 178.295471,88.394333 
	C178.074661,88.417519 177.853836,88.440712 177.819016,88.739616 
M353.738831,99.184891 
	C353.624146,99.026947 353.509491,98.868996 353.394836,98.711044 
	C353.418060,98.930824 353.441284,99.150597 353.738831,99.184891 
M200.404358,239.482071 
	C200.404358,239.482071 200.523865,239.408844 200.404358,239.482071 
M184.517288,83.410583 
	C184.517288,83.410583 184.584869,83.523140 184.517288,83.410583 
M317.516663,305.411224 
	C317.516663,305.411224 317.584320,305.524109 317.516663,305.411224 
M274.482544,239.590286 
	C274.482544,239.590286 274.414032,239.476440 274.482544,239.590286 
M311.408783,351.482574 
	C311.408783,351.482574 311.523407,351.413300 311.408783,351.482574 
M299.401215,370.481689 
	C299.401215,370.481689 299.524048,370.405670 299.401215,370.481689 
M302.591827,69.517761 
	C302.591827,69.517761 302.475861,69.587891 302.591827,69.517761 
M96.518013,111.398674 
	C96.518013,111.398674 96.596428,111.524101 96.518013,111.398674 
M251.410263,402.482819 
	C251.410263,402.482819 251.523193,402.414978 251.410263,402.482819 
M272.409241,237.482666 
	C272.409241,237.482666 272.523193,237.413971 272.409241,237.482666 
M279.480530,240.600510 
	C279.480530,240.600510 279.402557,240.475998 279.480530,240.600510 
M254.595657,292.518158 
	C254.595657,292.518158 254.476547,292.591248 254.595657,292.518158 
M246.401489,288.481689 
	C246.401489,288.481689 246.523865,288.406067 246.401489,288.481689 
M390.600708,100.518608 
	C390.600708,100.518608 390.475800,100.596420 390.600708,100.518608 
M188.594772,84.517929 
	C188.594772,84.517929 188.475662,84.590622 188.594772,84.517929 
M231.517410,282.409302 
	C231.517410,282.409302 231.586105,282.523285 231.517410,282.409302 
M266.518951,280.401459 
	C266.518951,280.401459 266.595154,280.524506 266.518951,280.401459 
M269.601868,277.519196 
	C269.601868,277.519196 269.476593,277.597565 269.601868,277.519196 
M346.411285,94.482788 
	C346.411285,94.482788 346.523132,94.415863 346.411285,94.482788 
z"/>
<path fill="#000000" opacity="1.000000" stroke="none" 
	d="
M204.000000,298.991455 
	C204.001785,298.248230 204.003555,297.505035 204.278168,296.163574 
	C207.024261,292.049988 209.497513,288.534607 211.970764,285.019257 
	C211.970764,285.019257 212.000412,284.997375 212.227570,284.891418 
	C212.723450,284.599152 212.895920,284.346954 212.972092,284.028870 
	C212.972092,284.028870 212.996979,284.003662 213.331696,283.977661 
	C219.095734,284.285767 224.525040,284.619843 229.954346,284.953949 
	C229.954346,284.953949 230.007812,285.017090 230.042175,285.361145 
	C230.685608,286.153534 231.294678,286.601898 231.903748,287.050232 
	C235.395203,290.609802 238.886658,294.169373 242.828766,298.157379 
	C244.852951,300.059662 246.426468,301.533478 248.000000,303.007324 
	C248.100235,303.327332 248.285461,303.586548 248.942261,304.138550 
	C249.887100,304.661835 250.445374,304.831512 251.003647,305.001221 
	C251.003647,305.001221 251.503357,305.000000 252.064484,305.021606 
	C257.479736,304.509735 259.064545,300.572327 261.000000,297.000000 
	C261.000000,297.000000 261.496338,297.000305 261.965942,296.895081 
	C262.712311,296.591827 262.899475,296.329773 262.996948,296.003662 
	C262.996948,296.003662 263.000000,296.000000 263.346313,295.963928 
	C270.609924,289.304138 277.567535,282.721924 284.434540,276.046448 
	C293.336304,267.392975 302.205719,258.705292 311.010529,249.953400 
	C315.762360,245.230148 320.335724,240.327820 325.016296,235.532333 
	C331.784058,228.598404 339.831696,229.869827 348.002441,232.000610 
	C348.281830,232.186005 348.561188,232.371384 349.020233,232.995239 
	C349.352417,233.717560 349.580292,233.913986 349.883545,234.022980 
	C351.401154,236.879471 352.918762,239.735977 354.759125,243.186935 
	C357.494110,249.860748 353.814423,254.300888 350.684448,259.131622 
	C344.528168,265.078247 338.650208,270.834412 332.869446,276.686615 
	C332.009308,277.557373 331.606873,278.880219 330.696838,280.012268 
	C329.929779,280.339996 329.458557,280.649323 328.766968,281.078552 
	C328.362610,281.472137 328.178650,281.745819 327.993652,282.263153 
	C327.992584,282.506836 327.995117,282.994171 327.650269,283.028046 
	C322.824860,286.753113 317.605347,289.798370 315.630951,296.002808 
	C313.842377,297.334045 312.418610,298.661835 310.654663,300.025970 
	C308.543671,301.375305 306.772888,302.688263 304.699097,304.149719 
	C303.141998,305.821289 302.016174,307.475586 300.613556,308.846741 
	C288.808075,320.387634 276.967072,331.892273 265.104523,343.374542 
	C259.334930,348.959198 252.601334,351.015717 245.160355,347.403961 
	C241.820526,345.782928 238.805023,343.180176 236.151901,340.515564 
	C227.491135,331.817200 219.417404,322.502777 210.405640,314.198212 
	C205.620636,309.788727 203.918411,304.993866 204.000000,298.991455 
z"/>
<path fill="#050506" opacity="1.000000" stroke="none" 
	d="
M203.641205,299.030273 
	C203.918411,304.993866 205.620636,309.788727 210.405640,314.198212 
	C219.417404,322.502777 227.491135,331.817200 236.151901,340.515564 
	C238.805023,343.180176 241.820526,345.782928 245.160355,347.403961 
	C252.601334,351.015717 259.334930,348.959198 265.104523,343.374542 
	C276.967072,331.892273 288.808075,320.387634 300.613556,308.846741 
	C302.016174,307.475586 303.141998,305.821289 304.846191,304.487701 
	C305.530884,306.116089 305.765442,307.554993 306.000000,308.993896 
	C305.058197,311.381042 304.116364,313.768219 303.174561,316.155365 
	C303.599457,316.502380 304.024323,316.849396 304.449219,317.196442 
	C303.110077,317.354401 301.770966,317.512360 299.920593,317.730621 
	C300.955902,318.527924 301.655426,319.066650 302.855530,319.990875 
	C299.526398,323.039856 296.280243,326.019135 293.021484,328.984528 
	C292.781464,329.202942 292.458893,329.447937 292.160645,329.467529 
	C286.963715,329.809479 283.371155,331.515381 284.909912,337.757629 
	C284.973999,338.017578 284.773041,338.470764 284.548676,338.655426 
	C277.235565,344.673309 270.358704,351.375244 262.446259,356.467010 
	C254.765915,361.409393 246.161438,359.514618 238.869537,354.744629 
	C233.868683,351.473328 229.692108,346.904816 225.296951,342.757294 
	C222.192322,339.827545 218.299820,337.717468 218.600967,332.054291 
	C218.793106,328.441559 209.404007,323.186951 207.215866,324.146362 
	C203.792664,320.013336 200.027802,316.269806 197.349365,311.865540 
	C196.167679,309.922455 196.411209,306.275085 197.438370,304.066956 
	C198.422028,301.952393 201.259628,300.700256 203.641205,299.030273 
z"/>
<path fill="#050506" opacity="1.000000" stroke="none" 
	d="
M348.000671,231.614365 
	C339.831696,229.869827 331.784058,228.598404 325.016296,235.532333 
	C320.335724,240.327820 315.762360,245.230148 311.010529,249.953400 
	C302.205719,258.705292 293.336304,267.392975 284.434540,276.046448 
	C277.567535,282.721924 270.609924,289.304138 263.347687,295.962708 
	C263.713745,291.059631 259.824646,291.191559 256.517853,290.686737 
	C259.422058,287.953064 262.018372,285.509216 265.036011,282.668793 
	C264.772583,284.963013 264.529449,287.080719 264.286285,289.198425 
	C264.672791,289.536346 265.059326,289.874237 265.445831,290.212158 
	C268.859711,286.530029 272.273560,282.847900 276.151672,278.665100 
	C274.101013,278.174683 272.744293,277.850220 270.010223,277.196381 
	C276.651001,270.438812 282.676849,264.306976 288.927368,257.946503 
	C290.355469,259.706177 291.570770,261.203613 293.227570,263.245056 
	C294.249451,261.886963 295.080597,260.791443 295.901917,259.688599 
	C296.938965,258.296143 297.670746,256.263306 299.053650,255.615326 
	C304.120178,253.241409 305.244537,250.668900 299.813507,247.049438 
	C306.164429,241.254227 312.179077,235.765884 318.193695,230.277527 
	C318.588470,230.598663 318.983215,230.919800 319.377960,231.240936 
	C319.453949,232.375107 319.529968,233.509262 319.689240,235.886459 
	C323.458557,232.360397 326.437897,229.573334 330.143250,226.107071 
	C327.494263,225.344711 326.150330,224.957916 324.338806,224.436569 
	C325.189240,223.846130 325.734833,223.308945 326.390503,223.036255 
	C334.223114,219.778595 341.990997,218.232742 349.771790,223.856644 
	C347.022308,226.767715 341.301849,222.304337 340.433838,227.705460 
	C342.095734,231.652725 347.605408,224.871597 348.000671,231.614365 
z"/>
<path fill="#050506" opacity="1.000000" stroke="none" 
	d="
M174.070831,81.078972 
	C173.631866,83.771866 170.797516,87.046379 176.321808,88.373383 
	C175.460266,89.492157 174.970306,90.796562 174.089706,91.163536 
	C168.372879,93.545853 162.613678,95.843887 156.780136,97.921837 
	C153.591782,99.057549 150.572144,99.647278 146.928925,97.860352 
	C144.782379,96.807510 141.240311,98.599869 138.325882,99.112617 
	C138.386658,99.511215 138.447433,99.909805 138.508209,100.308395 
	C140.088959,100.308395 141.669708,100.308395 143.250473,100.308395 
	C143.320953,100.655930 143.391434,101.003464 143.461914,101.350998 
	C135.908493,103.512863 128.355087,105.674721 121.632660,107.598747 
	C121.632660,104.287178 121.632660,101.231178 121.632660,98.503922 
	C138.330933,92.854614 155.781418,86.950821 173.623077,81.029663 
	C174.014267,81.012291 174.070831,81.078972 174.070831,81.078972 
z"/>
<path fill="#050506" opacity="1.000000" stroke="none" 
	d="
M173.988174,80.977219 
	C179.799911,78.387985 185.801056,76.147751 191.441101,73.213448 
	C202.695602,67.358147 213.741653,61.102932 224.907181,55.074703 
	C225.940536,54.516792 227.213043,54.401779 229.488861,53.773441 
	C227.976410,56.166695 227.138809,57.492081 226.087540,59.155571 
	C227.587692,60.423794 229.043869,61.654846 230.184906,62.619473 
	C224.115631,66.553955 218.055573,70.930573 211.572922,74.550316 
	C205.863159,77.738495 199.903351,81.313370 193.643631,82.442352 
	C187.642792,83.524643 181.114258,81.681114 174.444244,81.101196 
	C174.070831,81.078972 174.014267,81.012291 173.988174,80.977219 
z"/>
<path fill="#050506" opacity="1.000000" stroke="none" 
	d="
M327.995117,282.994171 
	C327.995117,282.994171 327.992584,282.506836 328.217743,282.147461 
	C328.624390,281.511627 328.805878,281.235138 328.987335,280.958618 
	C329.458557,280.649323 329.929779,280.339996 330.710052,280.392914 
	C332.528290,285.610962 335.046356,281.519989 337.266113,281.837433 
	C335.624756,277.632294 336.342651,276.834167 340.572754,273.102417 
	C344.995392,269.200775 350.607391,265.940674 350.994324,258.972321 
	C353.814423,254.300888 357.494110,249.860748 355.034851,243.391617 
	C357.998047,245.396255 361.716675,247.322983 363.731476,250.374649 
	C364.802185,251.996368 363.429779,255.812836 362.276306,258.213989 
	C358.562500,265.944672 352.797058,271.960236 345.611389,276.660431 
	C344.357330,277.480682 343.460785,278.846191 342.395325,279.956207 
	C339.327209,283.152649 336.257111,286.347168 334.204803,288.483673 
	C330.231903,289.505676 327.486145,290.211975 324.420105,290.613647 
	C325.492493,289.254333 327.008331,288.325134 328.244598,287.111206 
	C329.591766,285.788330 331.716705,284.130737 327.995117,282.994171 
z"/>
<path fill="#050506" opacity="1.000000" stroke="none" 
	d="
M269.232422,402.364594 
	C266.343903,403.281311 263.847015,404.286835 261.258514,404.664398 
	C259.672211,404.895813 257.945435,404.164459 256.281738,403.865479 
	C257.010651,402.435120 257.739563,401.004761 258.724792,399.071411 
	C258.294312,398.425995 257.529419,397.279205 256.359070,395.524445 
	C269.920593,394.537964 279.850128,386.381165 290.082428,379.438690 
	C291.997101,382.014923 293.628174,384.209534 295.378113,386.564148 
	C287.958954,393.502655 279.280060,398.670746 269.232422,402.364594 
z"/>
<path fill="#030303" opacity="1.000000" stroke="none" 
	d="
M401.816071,218.003250 
	C396.841217,215.352036 396.789825,221.327713 393.990753,222.499374 
	C393.359467,220.613297 393.490814,220.288559 398.134552,211.752213 
	C396.172852,207.850510 394.630646,204.783096 393.431580,201.121796 
	C393.839996,190.715469 393.905273,180.903046 393.970551,171.090637 
	C396.684509,168.397400 399.290558,168.054520 401.859711,172.232849 
	C401.992950,183.811188 401.954224,194.603622 402.033417,205.395203 
	C402.044403,206.895279 402.636780,208.391113 402.960022,209.888901 
	C402.962006,210.096359 402.963959,210.303818 402.595520,210.991058 
	C402.088745,213.648315 401.952393,215.825790 401.816071,218.003250 
z"/>
<path fill="#050506" opacity="1.000000" stroke="none" 
	d="
M308.408813,371.047028 
	C307.785370,372.551605 306.826355,373.998871 305.867310,375.446136 
	C305.393921,375.256104 304.920502,375.066071 304.447113,374.876038 
	C304.329803,372.034485 305.669739,368.229553 299.319092,369.033295 
	C305.855042,361.090515 311.572876,354.141998 317.436432,347.016327 
	C315.999664,344.800568 315.544098,342.974640 318.874634,340.624268 
	C322.207245,338.272430 325.747803,334.988922 324.932098,329.945496 
	C324.671265,328.332916 323.941803,326.546600 322.856873,325.361542 
	C318.905731,321.045746 319.036469,318.825165 323.917969,315.553833 
	C325.138000,314.736267 326.455505,314.064178 328.004242,313.164978 
	C327.181091,312.669159 327.679321,312.835205 327.674591,312.985535 
	C327.234253,327.067932 326.611603,341.112732 320.417511,354.197754 
	C319.190430,356.789886 317.880157,358.787750 314.544891,358.386536 
	C313.817596,358.299011 312.985474,359.082703 311.629364,359.744354 
	C313.373901,360.826019 314.553406,361.557343 315.960815,362.429993 
	C314.683868,364.929352 313.509827,367.227264 312.170746,369.848267 
	C309.982513,368.063599 307.844666,366.320007 305.706787,364.576385 
	C305.231720,364.978149 304.756653,365.379913 304.281555,365.781677 
	C305.545441,367.517700 306.809326,369.253723 308.408813,371.047028 
z"/>
<path fill="#030303" opacity="1.000000" stroke="none" 
	d="
M402.874420,263.693024 
	C402.874420,267.621490 402.874420,271.549957 402.874420,275.946350 
	C399.549530,275.017609 396.810669,274.252533 393.273224,273.264404 
	C394.287262,271.569122 395.104126,269.704315 396.360931,268.209412 
	C398.753815,265.363098 398.600098,262.987091 395.869049,260.478180 
	C392.033173,256.954224 392.251343,255.557556 396.128113,252.339188 
	C397.697998,251.035919 398.731964,249.087112 400.009796,247.432068 
	C399.604095,247.084946 399.198395,246.737839 398.792664,246.390732 
	C397.229797,246.957153 395.666901,247.523560 394.104034,248.089966 
	C393.712830,247.753311 393.321625,247.416641 392.930420,247.079987 
	C394.797211,244.074600 396.664032,241.069199 398.714752,237.767700 
	C397.782318,236.429108 396.452728,234.932587 395.625793,233.196640 
	C395.016815,231.918259 395.064789,230.326920 394.820068,228.875031 
	C396.272583,229.080994 397.728638,229.265457 399.175995,229.502792 
	C399.818481,229.608170 400.443420,229.820374 401.515839,230.397934 
	C402.303986,232.542572 402.652618,234.273392 403.001282,236.004211 
	C402.986969,236.817307 402.972687,237.630417 402.594513,239.081482 
	C402.445221,247.710648 402.659821,255.701828 402.874420,263.693024 
z"/>
<path fill="#040404" opacity="1.000000" stroke="none" 
	d="
M271.318909,62.359970 
	C271.577057,61.394138 271.919678,60.722240 272.374146,60.137272 
	C273.141388,59.149822 273.979431,58.217442 274.787720,57.261909 
	C273.652496,56.953754 272.519684,56.394482 271.381653,56.383682 
	C267.703857,56.348789 267.337433,55.288483 269.577271,50.635315 
	C279.455841,56.300148 289.364197,61.909256 299.187042,67.664330 
	C301.754822,69.168762 301.185211,70.057312 298.863068,72.174545 
	C290.831757,79.497177 287.311920,69.300308 281.869415,68.954193 
	C282.702606,67.312675 283.354126,66.029060 284.005676,64.745445 
	C283.660004,64.487602 283.314331,64.229759 282.968658,63.971924 
	C281.519379,64.607117 280.070068,65.242317 278.207520,66.058640 
	C277.930298,65.230278 277.668182,64.447014 277.648712,64.388840 
	C275.296722,63.745003 273.375214,63.218994 271.318909,62.359970 
z"/>
<path fill="#040404" opacity="1.000000" stroke="none" 
	d="
M338.917664,85.102188 
	C345.711365,87.490982 346.132385,88.431358 344.171814,97.056633 
	C343.014404,96.196655 342.022644,95.536636 341.119873,94.771561 
	C339.643616,93.520493 338.409180,91.477745 336.745880,91.054947 
	C332.798004,90.051460 329.246094,89.045555 328.935669,83.978691 
	C322.821228,88.381569 322.821228,88.381569 310.939758,82.782013 
	C312.553955,75.668945 314.127930,75.247589 320.378265,78.243408 
	C326.178467,81.023491 332.463318,82.792374 338.917664,85.102188 
z"/>
<path fill="#050506" opacity="1.000000" stroke="none" 
	d="
M244.843719,231.000824 
	C244.543243,233.446136 243.878098,235.888535 243.318115,237.944748 
	C247.126114,241.446762 252.942856,234.548752 255.576889,240.811188 
	C244.183762,240.811188 232.890549,240.811188 222.780334,240.811188 
	C223.319290,239.463928 224.617844,237.430618 224.762344,235.318359 
	C224.829330,234.339081 222.649612,233.206131 220.849243,231.557541 
	C228.855377,231.367920 236.667221,231.182907 244.843719,231.000824 
z"/>
<path fill="#050506" opacity="1.000000" stroke="none" 
	d="
M243.182678,114.200897 
	C245.524826,114.043587 247.517334,113.988686 249.509140,114.007301 
	C258.150055,114.088043 258.628387,114.557533 259.322205,123.726791 
	C253.739944,123.726791 248.175018,123.726791 241.835754,123.726791 
	C241.835754,132.244934 241.835754,140.794632 241.835754,149.344330 
	C241.314972,149.360641 240.794189,149.376953 240.273407,149.393265 
	C240.273407,143.137039 240.273407,136.880798 240.273407,130.103928 
	C237.563782,130.886673 235.755356,131.409088 234.020630,131.910217 
	C234.020630,129.108109 234.020630,126.524269 234.020630,123.563049 
	C236.328461,124.232712 238.712463,124.760849 241.861862,122.277328 
	C245.744186,119.215836 243.674637,117.082214 243.182678,114.200897 
M254.994110,118.495934 
	C251.289078,115.373505 249.342224,116.204765 247.726822,121.653778 
	C250.895554,121.653778 254.040955,121.653778 257.794800,121.653778 
	C256.735809,120.430412 256.114502,119.712685 254.994110,118.495934 
z"/>
<path fill="#050506" opacity="1.000000" stroke="none" 
	d="
M213.999390,234.999390 
	C214.109390,241.032059 214.290634,241.308502 218.570999,241.664474 
	C210.530243,245.480743 202.652298,249.219727 194.389160,252.981567 
	C194.003998,253.004425 193.942337,252.943726 193.942337,252.943726 
	C192.604843,250.287445 191.267349,247.631180 189.859680,244.835541 
	C191.569290,243.962143 193.425766,243.013702 195.641235,242.032623 
	C196.000214,241.999985 196.017548,242.013657 196.017548,242.013657 
	C195.724609,243.422699 195.431671,244.831726 195.138733,246.240768 
	C195.463074,246.628815 195.787430,247.016876 196.111771,247.404938 
	C199.042038,245.521393 201.972290,243.637833 205.035477,241.668854 
	C203.886963,240.167816 203.257034,239.344528 202.295425,238.087769 
	C206.246964,236.969116 209.722885,235.985107 213.599396,235.000549 
	C214.000000,235.000000 213.999390,234.999390 213.999390,234.999390 
z"/>
<path fill="#050506" opacity="1.000000" stroke="none" 
	d="
M72.032188,115.032913 
	C72.096771,119.934746 72.010551,124.844643 72.272270,129.735931 
	C72.493172,133.864243 70.854485,136.236191 66.811584,137.156540 
	C65.748764,137.398499 64.837479,138.306061 63.429382,138.493942 
	C63.048550,131.051270 63.094936,124.022598 63.141323,116.993935 
	C65.486382,118.762184 67.831444,120.530426 70.543770,122.575607 
	C70.841965,120.162514 71.128418,117.844452 71.709885,115.265366 
	C72.004890,115.004349 72.032188,115.032913 72.032188,115.032913 
z"/>
<path fill="#050506" opacity="1.000000" stroke="none" 
	d="
M63.178085,197.992905 
	C66.539459,201.383255 72.824890,202.493988 72.332397,208.849335 
	C72.140503,211.325592 71.037537,213.963318 69.638481,216.050980 
	C68.133865,218.296158 65.794777,219.982117 63.410751,221.494934 
	C63.060501,213.382812 63.119293,205.687851 63.178085,197.992905 
z"/>
<path fill="#050506" opacity="1.000000" stroke="none" 
	d="
M63.159256,171.993378 
	C70.810905,174.834503 72.891510,179.006012 71.842888,187.652664 
	C68.634270,190.950638 66.241188,193.410370 63.435860,195.475296 
	C63.068829,187.384781 63.114044,179.689087 63.159256,171.993378 
z"/>
<path fill="#898989" opacity="1.000000" stroke="none" 
	d="
M63.094795,171.569275 
	C63.114044,179.689087 63.068829,187.384781 63.102814,195.543900 
	C63.142845,196.449509 63.103672,196.891724 63.121292,197.663422 
	C63.119293,205.687851 63.060501,213.382812 63.074081,221.541992 
	C63.097641,223.720016 63.048820,225.433838 63.002083,227.996857 
	C63.052711,230.566864 63.101261,232.287628 63.149811,234.008408 
	C63.107430,236.417587 63.065052,238.826767 63.015816,242.039551 
	C63.051403,244.563904 63.093853,246.284653 63.136303,248.005386 
	C63.136303,252.790405 63.136303,257.575439 63.136303,262.360474 
	C62.762001,262.360809 62.387699,262.361176 62.013397,262.361511 
	C62.013397,256.444153 62.013844,250.526764 62.013329,244.609390 
	C62.009552,201.046890 62.002930,157.484390 62.012936,113.921890 
	C62.013279,112.432907 62.179909,110.943954 62.634514,109.227493 
	C63.006260,111.371231 63.012524,113.742470 63.080055,116.553818 
	C63.094936,124.022598 63.048550,131.051270 63.080860,138.543243 
	C63.116909,140.393692 63.074261,141.780807 63.012711,144.044922 
	C63.051449,151.950165 63.109093,158.978409 63.166740,166.006638 
	C63.121273,167.719482 63.075802,169.432312 63.094795,171.569275 
z"/>
<path fill="#050506" opacity="1.000000" stroke="none" 
	d="
M63.501759,165.960846 
	C63.109093,158.978409 63.051449,151.950165 63.068829,144.458130 
	C71.668297,148.215088 74.580002,152.118973 71.907318,157.945267 
	C70.432846,161.159546 66.604149,163.293869 63.501759,165.960846 
z"/>
<path fill="#050506" opacity="1.000000" stroke="none" 
	d="
M211.589874,285.000031 
	C209.497513,288.534607 207.024261,292.049988 204.282074,295.792023 
	C202.187469,293.493195 200.361786,290.967682 198.536118,288.442169 
	C197.831467,288.362488 197.126801,288.282776 196.422150,288.203094 
	C200.324371,284.012604 204.226578,279.822113 208.128799,275.631622 
	C208.597916,275.884949 209.067017,276.138306 209.536118,276.391663 
	C209.536118,278.226471 209.340805,280.090485 209.608917,281.885254 
	C209.771347,282.972504 210.651367,283.952576 211.589874,285.000031 
z"/>
<path fill="#050506" opacity="1.000000" stroke="none" 
	d="
M262.014557,233.978989 
	C264.704254,234.602692 267.393951,235.226395 270.537781,235.955414 
	C266.833435,238.326736 268.922760,240.514038 270.788147,240.985077 
	C274.961700,242.038925 275.359589,244.876556 275.486542,248.342819 
	C269.924713,246.362717 264.397095,244.394791 258.655273,242.350616 
	C259.718781,239.926483 260.848785,237.350769 261.988281,234.388580 
	C261.997742,234.002090 262.014557,233.978989 262.014557,233.978989 
z"/>
<path fill="#050506" opacity="1.000000" stroke="none" 
	d="
M229.961517,284.588684 
	C224.525040,284.619843 219.095734,284.285767 213.344254,283.965179 
	C212.726578,278.739441 217.039200,283.480377 218.739120,280.619751 
	C218.891220,280.043365 219.304428,278.477417 219.854553,276.392548 
	C217.814590,275.718353 215.872467,275.076447 213.930328,274.434570 
	C213.962067,274.013702 213.993805,273.592834 214.025528,273.171967 
	C219.744293,273.601837 225.463058,274.031708 231.181824,274.461578 
	C224.332550,277.488708 227.927292,280.957336 229.961517,284.588684 
z"/>
<path fill="#040404" opacity="1.000000" stroke="none" 
	d="
M375.836426,106.123291 
	C374.368317,105.424667 372.923889,105.056709 372.295288,104.133339 
	C370.479309,101.465828 368.991852,98.574661 367.240265,95.536926 
	C367.328125,95.523277 368.328156,95.129501 369.247894,95.268173 
	C372.481201,95.755615 375.734283,96.253654 378.878418,97.117035 
	C380.039032,97.435738 381.526062,98.621269 381.801941,99.686539 
	C382.410004,102.034698 382.342499,104.557800 382.616516,107.784508 
	C380.452850,107.247559 378.342804,106.723907 375.836426,106.123291 
z"/>
<path fill="#050506" opacity="1.000000" stroke="none" 
	d="
M240.547638,407.720490 
	C236.116837,407.825348 232.039734,407.825348 227.962616,407.825348 
	C227.932663,407.208435 227.902710,406.591492 227.872757,405.974579 
	C229.731415,405.790680 231.590073,405.606781 233.783386,405.389771 
	C233.596832,403.974762 233.412521,402.576874 233.145737,400.553345 
	C235.790955,399.778015 238.519287,398.978363 241.278824,398.169525 
	C242.687241,404.549988 242.687241,404.549988 253.468781,404.710022 
	C253.554749,405.202393 253.640717,405.694763 253.726685,406.187134 
	C249.451569,406.663300 245.176437,407.139465 240.547638,407.720490 
z"/>
<path fill="#050506" opacity="1.000000" stroke="none" 
	d="
M71.993645,114.988312 
	C73.456276,114.420914 74.930145,113.869553 76.522247,113.273956 
	C75.132332,109.532776 72.113396,110.072998 69.129684,110.019112 
	C67.675919,109.992851 66.240204,108.967499 64.796318,108.394394 
	C64.947975,107.730095 65.099640,107.065796 65.251297,106.401497 
	C71.049103,105.838150 76.846916,105.274796 82.366058,104.738518 
	C82.790131,106.868378 83.130867,108.579704 83.523384,110.551056 
	C82.209885,110.846077 80.860550,111.149155 78.368301,111.708939 
	C80.300293,112.577400 81.215584,112.988838 82.130875,113.400269 
	C82.169716,113.684196 82.208565,113.968117 82.247406,114.252045 
	C79.110138,114.506287 75.972862,114.760536 72.433891,115.023849 
	C72.032188,115.032913 72.004890,115.004349 71.993645,114.988312 
z"/>
<path fill="#A0A0A0" opacity="1.000000" stroke="none" 
	d="
M99.978661,264.976929 
	C99.985237,269.105042 99.985237,272.737915 99.985237,276.370758 
	C99.760399,276.368073 99.535553,276.365387 99.310715,276.362732 
	C99.310715,241.820938 99.310715,207.279160 99.310715,172.737366 
	C99.531174,172.735718 99.751625,172.734055 99.972084,172.732391 
	C99.972084,203.315475 99.972084,233.898544 99.978661,264.976929 
z"/>
<path fill="#050506" opacity="1.000000" stroke="none" 
	d="
M240.266571,164.965668 
	C240.695770,163.223816 241.699707,160.902222 241.227859,160.548325 
	C239.461853,159.223831 237.213074,158.543060 234.355835,157.268829 
	C234.355835,156.230377 234.355835,154.021378 234.355835,151.752472 
	C243.169250,151.323578 242.102402,159.582428 246.850281,164.793991 
	C243.618088,165.033432 241.890930,165.161377 240.266571,164.965668 
z"/>
<path fill="#040404" opacity="1.000000" stroke="none" 
	d="
M424.369751,112.188965 
	C422.097778,112.978088 420.007965,113.646988 417.886688,113.768890 
	C417.387207,113.797607 416.212982,111.894501 416.345459,111.033356 
	C416.607025,109.332672 417.565063,107.739113 418.542908,105.348907 
	C421.626801,105.597420 425.791687,105.933052 429.514587,106.233055 
	C427.958252,107.996445 426.249359,109.932693 424.369751,112.188965 
z"/>
<path fill="#0C0C0C" opacity="1.000000" stroke="none" 
	d="
M327.650269,283.028046 
	C331.716705,284.130737 329.591766,285.788330 328.244598,287.111206 
	C327.008331,288.325134 325.492493,289.254333 324.048096,290.652649 
	C323.488281,292.335999 322.980255,293.675690 322.191437,295.755707 
	C321.486145,295.903351 319.592407,296.299805 317.241241,296.628082 
	C316.583374,296.285614 316.320679,296.098755 315.995758,295.999359 
	C317.605347,289.798370 322.824860,286.753113 327.650269,283.028046 
z"/>
<path fill="#676766" opacity="1.000000" stroke="none" 
	d="
M359.992859,145.015594 
	C359.991943,163.770691 359.991943,182.028122 359.991943,200.285538 
	C359.648010,200.285812 359.304047,200.286087 358.960114,200.286362 
	C358.960114,177.564514 358.960114,154.842682 358.960114,132.120834 
	C359.304657,132.099380 359.649231,132.077927 359.993774,132.056473 
	C359.993774,136.210281 359.993774,140.364090 359.992859,145.015594 
z"/>
<path fill="#050506" opacity="1.000000" stroke="none" 
	d="
M234.946381,50.824394 
	C234.463135,50.248833 234.020874,49.171329 234.200012,49.055584 
	C236.631134,47.484829 239.148422,46.047478 241.914139,44.418293 
	C243.651535,46.929909 245.370483,49.414845 247.322342,52.236496 
	C245.176163,53.309685 243.607712,54.093987 241.735779,55.030041 
	C240.483856,53.030441 239.377304,51.263031 238.114716,49.246407 
	C237.215393,49.728996 236.245804,50.249287 234.946381,50.824394 
z"/>
<path fill="#050506" opacity="1.000000" stroke="none" 
	d="
M85.900711,113.927345 
	C87.574043,111.198051 89.247383,108.468758 90.960358,105.369736 
	C91.000000,105.000000 90.999977,105.000305 90.999977,105.000305 
	C92.953987,104.452492 94.907990,103.904686 96.184975,103.546677 
	C96.951714,105.516174 97.683739,107.396507 98.602470,109.756409 
	C97.245918,109.242470 96.135803,108.821892 94.655975,108.261253 
	C94.272064,109.633827 93.896820,110.975372 93.469673,112.502502 
	C91.333153,112.994423 89.104111,113.507637 86.434036,114.013901 
	C85.992989,114.006943 85.900711,113.927345 85.900711,113.927345 
z"/>
<path fill="#040404" opacity="1.000000" stroke="none" 
	d="
M414.212769,109.941406 
	C413.086639,110.983795 411.837433,111.722366 410.302368,112.629929 
	C408.295135,109.871109 406.366821,107.220703 403.602966,103.421913 
	C407.550049,103.780548 409.769226,103.982185 412.207825,104.203766 
	C412.831848,106.005653 413.460754,107.821617 414.212769,109.941406 
z"/>
<path fill="#050506" opacity="1.000000" stroke="none" 
	d="
M63.480854,247.962097 
	C63.093853,246.284653 63.051403,244.563904 63.079704,242.417999 
	C64.458321,241.472931 65.749229,240.903290 67.079765,240.449921 
	C68.032356,240.125336 69.038025,239.956528 70.020020,239.718231 
	C69.972115,240.889679 70.395996,242.521667 69.787071,243.145493 
	C68.022095,244.953552 65.842369,246.356735 63.480854,247.962097 
z"/>
<path fill="#040404" opacity="1.000000" stroke="none" 
	d="
M261.667542,45.311565 
	C263.159180,46.262745 264.346497,47.055378 266.159698,48.265877 
	C263.532379,50.223213 261.450317,51.774323 259.368256,53.325432 
	C259.011627,53.085258 258.655029,52.845081 258.298401,52.604904 
	C258.597351,50.131641 258.863678,47.652767 259.285553,45.200657 
	C259.308105,45.069504 260.640533,45.163715 261.667542,45.311565 
z"/>
<path fill="#050506" opacity="1.000000" stroke="none" 
	d="
M354.000000,227.000610 
	C355.967957,227.995316 357.935944,228.990021 360.581085,230.326996 
	C358.810272,231.878677 358.204773,232.735947 357.390106,233.048920 
	C356.064575,233.558197 354.602264,233.711609 353.197693,234.015198 
	C353.167938,232.694534 353.036896,231.365433 353.146179,230.056381 
	C353.212250,229.264938 353.651245,228.504639 353.961334,227.365173 
	C354.000000,227.000000 354.000000,227.000610 354.000000,227.000610 
z"/>
<path fill="#A0A0A0" opacity="1.000000" stroke="none" 
	d="
M402.968140,209.427643 
	C402.636780,208.391113 402.044403,206.895279 402.033417,205.395203 
	C401.954224,194.603622 401.992950,183.811188 402.013031,172.556976 
	C402.356049,173.411530 402.953583,174.726486 402.961578,176.044998 
	C403.028015,187.018417 402.985718,197.992493 402.968140,209.427643 
z"/>
<path fill="#050506" opacity="1.000000" stroke="none" 
	d="
M108.342842,105.635651 
	C109.782509,106.698814 110.929565,107.563324 113.014351,109.134560 
	C109.846344,110.108444 108.078545,110.651886 106.674065,111.083633 
	C105.417931,107.960442 104.350540,105.306534 103.283150,102.652626 
	C103.589340,102.393021 103.895538,102.133408 104.201729,101.873802 
	C105.484566,103.061531 106.767403,104.249260 108.342842,105.635651 
z"/>
<path fill="#A0A0A0" opacity="1.000000" stroke="none" 
	d="
M430.242310,152.236877 
	C430.017853,139.773666 430.017853,127.683601 430.017853,115.593536 
	C430.167480,115.595840 430.317139,115.598145 430.466766,115.600456 
	C430.466766,127.936966 430.466766,140.273483 430.242310,152.236877 
z"/>
<path fill="#050506" opacity="1.000000" stroke="none" 
	d="
M63.505978,234.051544 
	C63.101261,232.287628 63.052711,230.566864 63.071449,228.420303 
	C67.186577,228.718658 68.987350,231.461365 70.196411,236.218872 
	C67.563774,235.336029 65.712959,234.715363 63.505978,234.051544 
z"/>
<path fill="#FFFFFF" opacity="1.000000" stroke="none" 
	d="
M208.999420,181.759476 
	C208.999420,183.673645 208.999420,185.119370 208.999420,186.565109 
	C208.747421,186.563873 208.495422,186.562637 208.243423,186.561386 
	C208.243423,174.861130 208.243423,163.160873 208.243423,151.460617 
	C208.495422,151.458115 208.747421,151.455612 208.999420,151.453110 
	C208.999420,161.399094 208.999420,171.345062 208.999420,181.759476 
z"/>
<path fill="#050506" opacity="1.000000" stroke="none" 
	d="
M284.016541,243.042999 
	C285.260498,243.365829 286.159027,243.699875 286.574707,243.854416 
	C285.270935,246.846451 284.035156,249.682404 282.809875,252.494263 
	C279.242767,250.657669 279.242767,250.657669 284.016541,243.042999 
z"/>
<path fill="#040404" opacity="1.000000" stroke="none" 
	d="
M399.871307,106.043480 
	C397.639679,106.777519 395.236450,108.700584 395.492249,104.279518 
	C395.533203,103.571938 393.542206,102.746796 392.738373,101.068054 
	C395.358856,101.518227 397.994080,101.910316 400.562988,102.563301 
	C400.716675,102.602364 400.339874,104.728386 399.871307,106.043480 
z"/>
<path fill="#FFFFFF" opacity="1.000000" stroke="none" 
	d="
M208.999420,130.023499 
	C208.999420,136.807800 208.999420,143.096695 208.999420,149.385605 
	C208.764374,149.384888 208.529327,149.384171 208.294281,149.383453 
	C208.294281,139.131348 208.294281,128.879242 208.294281,118.627129 
	C208.529327,118.620430 208.764374,118.613739 208.999420,118.607040 
	C208.999420,122.247398 208.999420,125.887749 208.999420,130.023499 
z"/>
<path fill="#0C0C0C" opacity="1.000000" stroke="none" 
	d="
M290.010864,136.970215 
	C290.010986,140.910110 290.010986,144.356583 290.010986,147.803040 
	C289.781097,147.801895 289.551208,147.800751 289.321320,147.799606 
	C289.321320,137.934372 289.321320,128.069122 289.321320,118.203880 
	C289.551117,118.195580 289.780914,118.187271 290.010712,118.178963 
	C290.010712,124.278229 290.010712,130.377502 290.010864,136.970215 
z"/>
<path fill="#050506" opacity="1.000000" stroke="none" 
	d="
M260.807922,296.764343 
	C259.064545,300.572327 257.479736,304.509735 252.314331,305.021027 
	C254.873993,302.175446 257.744904,299.352081 260.807922,296.764343 
z"/>
<path fill="#050506" opacity="1.000000" stroke="none" 
	d="
M310.989258,304.991425 
	C313.058868,307.756927 314.430725,310.456726 309.862701,312.929993 
	C309.248230,311.821808 308.658203,310.757660 308.037445,308.979340 
	C309.000885,307.173889 309.995087,306.082672 310.989258,304.991425 
z"/>
<path fill="#0C0C0C" opacity="1.000000" stroke="none" 
	d="
M310.991852,304.743103 
	C309.995087,306.082672 309.000885,307.173889 308.002747,308.628418 
	C307.554596,308.993835 307.110443,308.995911 306.333130,308.995941 
	C305.765442,307.554993 305.530884,306.116089 305.149170,304.339203 
	C306.772888,302.688263 308.543671,301.375305 310.853821,300.237122 
	C311.261322,301.607361 311.129456,302.802765 310.997559,303.998169 
	C310.997559,303.998169 310.994446,304.494812 310.991852,304.743103 
z"/>
<path fill="#898989" opacity="1.000000" stroke="none" 
	d="
M393.583008,171.275269 
	C393.905273,180.903046 393.839996,190.715469 393.398315,200.730804 
	C393.079742,191.109131 393.137604,181.284515 393.583008,171.275269 
z"/>
<path fill="#050506" opacity="1.000000" stroke="none" 
	d="
M311.299255,303.847382 
	C311.129456,302.802765 311.261322,301.607361 311.194031,300.200806 
	C312.418610,298.661835 313.842377,297.334045 315.630951,296.002808 
	C316.320679,296.098755 316.583374,296.285614 316.891907,296.779968 
	C315.200317,299.232208 313.400604,301.464386 311.299255,303.847382 
z"/>
<path fill="#050506" opacity="1.000000" stroke="none" 
	d="
M293.754333,252.100189 
	C295.349762,251.221558 296.806427,250.645233 298.136993,250.118820 
	C296.444336,252.955200 294.877716,255.580307 293.311127,258.205444 
	C292.511078,257.477081 291.711029,256.748718 290.910980,256.020355 
	C291.812500,254.814407 292.714020,253.608444 293.754333,252.100189 
z"/>
<path fill="#676766" opacity="1.000000" stroke="none" 
	d="
M245.467896,194.012482 
	C252.658264,194.014328 259.405548,194.014328 266.152863,194.014328 
	C266.153168,194.238449 266.153503,194.462585 266.153809,194.686707 
	C258.121643,194.686707 250.089478,194.686707 242.057312,194.686707 
	C242.044022,194.563614 242.030746,194.440536 242.017456,194.317444 
	C243.019913,194.215179 244.022385,194.112915 245.467896,194.012482 
z"/>
<path fill="#A0A0A0" opacity="1.000000" stroke="none" 
	d="
M403.001160,235.535278 
	C402.652618,234.273392 402.303986,232.542572 401.881958,230.404205 
	C401.857788,228.607239 401.907043,227.217834 401.961792,225.019104 
	C401.917969,223.138763 401.868683,222.067734 401.819397,220.996689 
	C401.864014,220.246231 401.908661,219.495789 401.884705,218.374298 
	C401.952393,215.825790 402.088745,213.648315 402.588684,211.302185 
	C402.968567,219.111130 402.984802,227.088745 403.001160,235.535278 
z"/>
<path fill="#A0A0A0" opacity="1.000000" stroke="none" 
	d="
M402.909424,263.246002 
	C402.659821,255.701828 402.445221,247.710648 402.566223,239.487152 
	C402.915985,247.102890 402.930206,254.950943 402.909424,263.246002 
z"/>
<path fill="#050506" opacity="1.000000" stroke="none" 
	d="
M254.769638,232.021103 
	C256.173950,232.389389 257.212128,232.754501 258.250336,233.119614 
	C258.349915,233.500610 258.449463,233.881607 258.549042,234.262604 
	C257.163452,234.724518 255.777679,235.515579 254.392273,235.514999 
	C253.655792,235.514694 252.919907,234.142715 252.183762,233.389893 
	C252.923691,232.932571 253.663605,232.475250 254.769638,232.021103 
z"/>
<path fill="#050506" opacity="1.000000" stroke="none" 
	d="
M250.973267,292.539185 
	C250.291916,293.415619 248.871078,294.736755 248.612778,294.539062 
	C247.477142,293.669830 246.677231,292.361969 245.755646,291.213074 
	C246.105072,290.793060 246.454498,290.373047 246.803925,289.953033 
	C248.125580,290.730316 249.447220,291.507568 250.973267,292.539185 
z"/>
<path fill="#050506" opacity="1.000000" stroke="none" 
	d="
M241.997971,287.378296 
	C244.032089,290.489471 244.016098,290.511139 238.192871,291.470490 
	C239.760559,289.638794 240.711319,288.527954 241.997971,287.378296 
z"/>
<path fill="#040404" opacity="1.000000" stroke="none" 
	d="
M350.973877,94.767860 
	C352.717438,94.651321 354.193268,94.793030 355.669128,94.934731 
	C355.444641,95.702774 355.220184,96.470818 354.995697,97.238853 
	C353.565857,96.501274 352.136017,95.763687 350.973877,94.767860 
z"/>
<path fill="#050506" opacity="1.000000" stroke="none" 
	d="
M253.046722,399.923950 
	C251.843216,399.411652 251.010788,398.884949 250.178360,398.358215 
	C250.313416,397.958435 250.448471,397.558685 250.583527,397.158905 
	C251.929413,397.375183 253.275284,397.591492 254.621170,397.807770 
	C254.220032,398.508362 253.818909,399.208923 253.046722,399.923950 
z"/>
<path fill="#050506" opacity="1.000000" stroke="none" 
	d="
M247.994476,302.622772 
	C246.426468,301.533478 244.852951,300.059662 243.139099,298.292908 
	C246.207565,297.593170 247.829575,299.054626 247.994476,302.622772 
z"/>
<path fill="#040404" opacity="1.000000" stroke="none" 
	d="
M385.095520,100.585503 
	C386.408539,100.386909 387.680237,100.535179 388.951935,100.683456 
	C388.717712,101.381912 388.483521,102.080376 388.249298,102.778839 
	C387.184265,102.163345 386.119232,101.547859 385.095520,100.585503 
z"/>
<path fill="#040404" opacity="1.000000" stroke="none" 
	d="
M391.013000,109.809441 
	C390.075958,108.834389 389.470367,107.924103 388.864807,107.013817 
	C389.523743,106.772041 390.182709,106.530266 390.841644,106.288490 
	C391.009247,107.483727 391.176880,108.678970 391.013000,109.809441 
z"/>
<path fill="#050506" opacity="1.000000" stroke="none" 
	d="
M326.863068,306.552979 
	C323.959015,306.128448 323.959015,306.128448 325.544739,302.499390 
	C326.064270,303.935608 326.480286,305.085632 326.863068,306.552979 
z"/>
<path fill="#030303" opacity="1.000000" stroke="none" 
	d="
M401.498352,221.039673 
	C401.868683,222.067734 401.917969,223.138763 401.894226,224.606567 
	C400.983429,224.361130 400.145599,223.718964 399.307800,223.076782 
	C399.930969,222.412079 400.554138,221.747360 401.498352,221.039673 
z"/>
<path fill="#050506" opacity="1.000000" stroke="none" 
	d="
M71.865173,171.356323 
	C71.469109,172.307373 71.000381,172.929276 70.531647,173.551193 
	C70.140022,172.938782 69.748398,172.326370 69.356773,171.713959 
	C70.168678,171.485031 70.980591,171.256119 71.865173,171.356323 
z"/>
<path fill="#050506" opacity="1.000000" stroke="none" 
	d="
M264.846252,123.965576 
	C263.812378,123.793930 263.135101,123.606941 262.457794,123.419960 
	C262.503479,123.026749 262.549164,122.633537 262.594849,122.240326 
	C263.869415,122.434502 265.144012,122.628685 266.418579,122.822861 
	C266.013336,123.198654 265.608124,123.574448 264.846252,123.965576 
z"/>
<path fill="#040404" opacity="1.000000" stroke="none" 
	d="
M254.744797,42.934261 
	C255.369217,43.422604 255.774445,44.148411 256.179657,44.874218 
	C255.628311,45.094322 255.076965,45.314430 254.525604,45.534534 
	C254.525604,44.746933 254.525604,43.959328 254.744797,42.934261 
z"/>
<path fill="#040404" opacity="1.000000" stroke="none" 
	d="
M300.799500,76.427139 
	C301.859497,76.323662 302.678192,76.433006 303.496857,76.542351 
	C303.400909,76.961586 303.304993,77.380821 303.209045,77.800064 
	C302.325439,77.413361 301.441803,77.026657 300.799500,76.427139 
z"/>
<path fill="#050506" opacity="1.000000" stroke="none" 
	d="
M233.744537,279.534302 
	C234.338867,278.842682 235.168732,278.371918 235.998596,277.901184 
	C236.173172,278.363525 236.347748,278.825836 236.522308,279.288177 
	C235.674911,279.443848 234.827499,279.599518 233.744537,279.534302 
z"/>
<path fill="#050506" opacity="1.000000" stroke="none" 
	d="
M319.173950,329.854218 
	C319.147064,330.591858 318.902191,331.114502 318.657288,331.637115 
	C318.235077,331.217834 317.812866,330.798584 317.390625,330.379333 
	C317.912384,330.132629 318.434143,329.885925 319.173950,329.854218 
z"/>
<path fill="#040404" opacity="1.000000" stroke="none" 
	d="
M361.981323,101.018944 
	C360.999420,101.018944 360.017517,101.018944 359.035645,101.018944 
	C359.055725,100.662636 359.075775,100.306320 359.095856,99.950012 
	C360.038544,100.088142 360.981201,100.226273 361.961243,100.682968 
	C361.998627,101.001526 361.981323,101.018944 361.981323,101.018944 
z"/>
<path fill="#030303" opacity="1.000000" stroke="none" 
	d="
M396.798340,278.794739 
	C396.196198,278.430969 395.893433,278.004456 395.590668,277.577942 
	C396.038025,277.463043 396.485382,277.348145 396.932770,277.233276 
	C396.987762,277.732849 397.042755,278.232422 396.798340,278.794739 
z"/>
<path fill="#050506" opacity="1.000000" stroke="none" 
	d="
M231.457092,51.588768 
	C231.403748,52.046638 231.176483,52.325188 230.949219,52.603729 
	C230.771713,52.417271 230.594223,52.230816 230.416733,52.044369 
	C230.705551,51.832733 230.994354,51.621090 231.457092,51.588768 
z"/>
<path fill="#050506" opacity="1.000000" stroke="none" 
	d="
M317.944519,309.615112 
	C317.698212,309.212067 317.703583,308.810333 317.708923,308.408630 
	C317.875183,308.410858 318.186249,308.405487 318.186859,308.416473 
	C318.207916,308.815521 318.200073,309.216125 317.944519,309.615112 
z"/>
<path fill="#050506" opacity="1.000000" stroke="none" 
	d="
M194.034424,253.035156 
	C193.599487,253.692673 193.134125,254.319427 192.328735,254.968781 
	C191.988693,254.991379 191.933136,254.932968 191.933136,254.932983 
	C192.396408,254.309265 192.859665,253.685562 193.632629,253.002792 
	C193.942337,252.943726 194.003998,253.004425 194.034424,253.035156 
z"/>
<path fill="#050506" opacity="1.000000" stroke="none" 
	d="
M192.014313,255.022491 
	C191.611938,255.878983 191.183929,256.704376 190.755905,257.529755 
	C190.377487,257.143005 189.999054,256.756226 189.620621,256.369476 
	C190.195465,255.918976 190.770309,255.468491 191.639145,254.975494 
	C191.933136,254.932968 191.988693,254.991379 192.014313,255.022491 
z"/>
<path fill="#050506" opacity="1.000000" stroke="none" 
	d="
M111.891617,100.307022 
	C112.454460,100.273766 112.853317,100.402786 113.252167,100.531807 
	C113.142944,100.639954 113.010139,100.855904 112.928490,100.838028 
	C112.520828,100.748848 112.126587,100.598274 111.891617,100.307022 
z"/>
<path fill="#050506" opacity="1.000000" stroke="none" 
	d="
M117.135704,107.702072 
	C116.944809,107.392807 116.970840,107.051559 116.996872,106.710304 
	C117.234627,106.782196 117.472389,106.854088 117.710159,106.925987 
	C117.590981,107.174026 117.471802,107.422058 117.135704,107.702072 
z"/>
<path fill="#050506" opacity="1.000000" stroke="none" 
	d="
M91.000153,104.999847 
	C90.271423,104.955002 89.542534,104.910316 88.813652,104.865631 
	C88.836929,104.656509 88.860207,104.447388 88.883484,104.238258 
	C89.476692,104.333557 90.069901,104.428848 90.831543,104.762222 
	C90.999977,105.000305 91.000000,105.000000 91.000153,104.999847 
z"/>
<path fill="#040404" opacity="1.000000" stroke="none" 
	d="
M369.495728,103.467987 
	C369.910553,103.394081 370.166443,103.476227 370.422363,103.558365 
	C370.136383,103.838066 369.850403,104.117767 369.564423,104.397461 
	C369.488586,104.139656 369.412720,103.881851 369.495728,103.467987 
z"/>
<path fill="#050506" opacity="1.000000" stroke="none" 
	d="
M231.839279,286.769653 
	C231.294678,286.601898 230.685608,286.153534 230.068604,285.392975 
	C230.632019,285.550232 231.203415,286.019653 231.839279,286.769653 
z"/>
<path fill="#050506" opacity="1.000000" stroke="none" 
	d="
M218.084290,233.692322 
	C217.530365,233.724609 217.137543,233.596390 216.744705,233.468185 
	C216.851990,233.360901 216.983078,233.146667 217.062592,233.164337 
	C217.464218,233.253647 217.852432,233.403320 218.084290,233.692322 
z"/>
<path fill="#050506" opacity="1.000000" stroke="none" 
	d="
M117.261467,99.117279 
	C117.743942,99.218430 117.997215,99.359528 118.250481,99.500618 
	C117.997353,99.641449 117.684883,99.945923 117.506325,99.881165 
	C117.289322,99.802467 117.185211,99.412514 117.261467,99.117279 
z"/>
<path fill="#050506" opacity="1.000000" stroke="none" 
	d="
M114.397339,107.721710 
	C114.558327,107.849052 114.581680,108.069504 114.605034,108.289955 
	C114.489929,108.131577 114.374825,107.973190 114.397339,107.721710 
z"/>
<path fill="#050506" opacity="1.000000" stroke="none" 
	d="
M177.726013,88.601761 
	C177.853836,88.440712 178.074661,88.417519 178.295471,88.394333 
	C178.136658,88.509430 177.977844,88.624519 177.726013,88.601761 
z"/>
<path fill="#050506" opacity="1.000000" stroke="none" 
	d="
M250.835892,304.753845 
	C250.445374,304.831512 249.887100,304.661835 249.159027,304.246674 
	C249.548859,304.169647 250.108505,304.338074 250.835892,304.753845 
z"/>
<path fill="#050506" opacity="1.000000" stroke="none" 
	d="
M261.987488,234.012405 
	C261.549866,233.888641 261.122498,233.754547 260.695160,233.620453 
	C261.050964,233.603912 261.406799,233.587372 261.888580,233.774902 
	C262.014557,233.978989 261.997742,234.002090 261.987488,234.012405 
z"/>
<path fill="#040404" opacity="1.000000" stroke="none" 
	d="
M353.601654,99.277634 
	C353.441284,99.150597 353.418060,98.930824 353.394836,98.711044 
	C353.509491,98.868996 353.624146,99.026947 353.601654,99.277634 
z"/>
<path fill="#040404" opacity="1.000000" stroke="none" 
	d="
M362.008240,100.994507 
	C362.264618,101.342834 362.514313,101.696381 362.741943,102.063637 
	C362.747803,102.073067 362.511353,102.232712 362.387878,102.322327 
	C362.263702,102.048386 362.139496,101.774445 361.998291,101.259720 
	C361.981323,101.018944 361.998627,101.001526 362.008240,100.994507 
z"/>
<path fill="#050506" opacity="1.000000" stroke="none" 
	d="
M200.464111,239.445465 
	C200.523865,239.408844 200.404358,239.482071 200.464111,239.445465 
z"/>
<path fill="#050506" opacity="1.000000" stroke="none" 
	d="
M184.551086,83.466858 
	C184.584869,83.523140 184.517288,83.410583 184.551086,83.466858 
z"/>
<path fill="#050506" opacity="1.000000" stroke="none" 
	d="
M63.147812,108.948677 
	C63.098541,108.965782 63.197083,108.931572 63.147812,108.948677 
z"/>
<path fill="#050506" opacity="1.000000" stroke="none" 
	d="
M317.550476,305.467651 
	C317.584320,305.524109 317.516663,305.411224 317.550476,305.467651 
z"/>
<path fill="#050506" opacity="1.000000" stroke="none" 
	d="
M214.000305,235.000305 
	C214.093094,234.964462 214.185577,234.928314 214.138733,234.945770 
	C213.999390,234.999390 214.000000,235.000000 214.000305,235.000305 
z"/>
<path fill="#050506" opacity="1.000000" stroke="none" 
	d="
M274.448303,239.533356 
	C274.414032,239.476440 274.482544,239.590286 274.448303,239.533356 
z"/>
<path fill="#050506" opacity="1.000000" stroke="none" 
	d="
M262.776306,296.109802 
	C262.899475,296.329773 262.712311,296.591827 262.214111,296.895538 
	C262.093811,296.677429 262.281494,296.415680 262.776306,296.109802 
z"/>
<path fill="#050506" opacity="1.000000" stroke="none" 
	d="
M311.466095,351.447937 
	C311.523407,351.413300 311.408783,351.482574 311.466095,351.447937 
z"/>
<path fill="#050506" opacity="1.000000" stroke="none" 
	d="
M299.462646,370.443665 
	C299.524048,370.405670 299.401215,370.481689 299.462646,370.443665 
z"/>
<path fill="#040404" opacity="1.000000" stroke="none" 
	d="
M302.533844,69.552826 
	C302.475861,69.587891 302.591827,69.517761 302.533844,69.552826 
z"/>
<path fill="#050506" opacity="1.000000" stroke="none" 
	d="
M96.557220,111.461388 
	C96.596428,111.524101 96.518013,111.398674 96.557220,111.461388 
z"/>
<path fill="#050506" opacity="1.000000" stroke="none" 
	d="
M251.466736,402.448914 
	C251.523193,402.414978 251.410263,402.482819 251.466736,402.448914 
z"/>
<path fill="#050506" opacity="1.000000" stroke="none" 
	d="
M272.466217,237.448318 
	C272.523193,237.413971 272.409241,237.482666 272.466217,237.448318 
z"/>
<path fill="#050506" opacity="1.000000" stroke="none" 
	d="
M86.032974,114.052917 
	C85.918808,114.095528 85.764664,114.092155 85.755615,114.008064 
	C85.900711,113.927345 85.992989,114.006943 86.032974,114.052917 
z"/>
<path fill="#050506" opacity="1.000000" stroke="none" 
	d="
M279.441528,240.538254 
	C279.402557,240.475998 279.480530,240.600510 279.441528,240.538254 
z"/>
<path fill="#050506" opacity="1.000000" stroke="none" 
	d="
M354.000000,226.999969 
	C353.878204,226.857727 353.756378,226.715500 353.634583,226.573273 
	C353.720490,226.622955 353.806396,226.672638 353.946167,226.861465 
	C354.000000,227.000610 354.000000,227.000000 354.000000,226.999969 
z"/>
<path fill="#050506" opacity="1.000000" stroke="none" 
	d="
M195.993347,241.991394 
	C196.090164,241.953827 196.193817,241.924820 196.157501,241.954742 
	C196.017548,242.013657 196.000214,241.999985 195.993347,241.991394 
z"/>
<path fill="#050506" opacity="1.000000" stroke="none" 
	d="
M254.536102,292.554688 
	C254.476547,292.591248 254.595657,292.518158 254.536102,292.554688 
z"/>
<path fill="#050506" opacity="1.000000" stroke="none" 
	d="
M246.462677,288.443878 
	C246.523865,288.406067 246.401489,288.481689 246.462677,288.443878 
z"/>
<path fill="#040404" opacity="1.000000" stroke="none" 
	d="
M390.538269,100.557510 
	C390.475800,100.596420 390.600708,100.518608 390.538269,100.557510 
z"/>
<path fill="#050506" opacity="1.000000" stroke="none" 
	d="
M243.048782,284.936127 
	C243.162781,285.110046 243.276794,285.283966 243.390793,285.457886 
	C243.287933,285.415710 243.185074,285.373566 243.039154,285.164062 
	C242.996094,284.996704 243.048782,284.936127 243.048782,284.936127 
z"/>
<path fill="#050506" opacity="1.000000" stroke="none" 
	d="
M349.841980,233.796967 
	C349.580292,233.913986 349.352417,233.717560 349.160461,233.207214 
	C349.423096,233.090530 349.649536,233.287262 349.841980,233.796967 
z"/>
<path fill="#050506" opacity="1.000000" stroke="none" 
	d="
M242.965912,285.023132 
	C242.825211,284.879486 242.714676,284.709412 242.604141,284.539307 
	C242.703217,284.581421 242.802307,284.623535 242.975082,284.800903 
	C243.048782,284.936127 242.996094,284.996704 242.965912,285.023132 
z"/>
<path fill="#050506" opacity="1.000000" stroke="none" 
	d="
M212.758453,284.122589 
	C212.895920,284.346954 212.723450,284.599152 212.241272,284.879120 
	C212.104553,284.655273 212.276871,284.403107 212.758453,284.122589 
z"/>
<path fill="#050506" opacity="1.000000" stroke="none" 
	d="
M188.535217,84.554276 
	C188.475662,84.590622 188.594772,84.517929 188.535217,84.554276 
z"/>
<path fill="#050506" opacity="1.000000" stroke="none" 
	d="
M231.551758,282.466309 
	C231.586105,282.523285 231.517410,282.409302 231.551758,282.466309 
z"/>
<path fill="#050506" opacity="1.000000" stroke="none" 
	d="
M266.557068,280.462982 
	C266.595154,280.524506 266.518951,280.401459 266.557068,280.462982 
z"/>
<path fill="#050506" opacity="1.000000" stroke="none" 
	d="
M269.539246,277.558380 
	C269.476593,277.597565 269.601868,277.519196 269.539246,277.558380 
z"/>
<path fill="#040404" opacity="1.000000" stroke="none" 
	d="
M346.467224,94.449326 
	C346.523132,94.415863 346.411285,94.482788 346.467224,94.449326 
z"/>
<path fill="#0C0C0C" opacity="1.000000" stroke="none" 
	d="
M350.684448,259.131622 
	C350.607391,265.940674 344.995392,269.200775 340.572754,273.102417 
	C336.342651,276.834167 335.624756,277.632294 337.266113,281.837433 
	C335.046356,281.519989 332.528290,285.610962 331.005920,280.374512 
	C331.606873,278.880219 332.009308,277.557373 332.869446,276.686615 
	C338.650208,270.834412 344.528168,265.078247 350.684448,259.131622 
z"/>
<path fill="#0C0C0C" opacity="1.000000" stroke="none" 
	d="
M328.766968,281.078552 
	C328.805878,281.235138 328.624390,281.511627 328.218811,281.903809 
	C328.178650,281.745819 328.362610,281.472137 328.766968,281.078552 
z"/>
<path fill="#000000" opacity="1.000000" stroke="none" 
	d="
M255.243652,118.745445 
	C256.114502,119.712685 256.735809,120.430412 257.794800,121.653778 
	C254.040955,121.653778 250.895554,121.653778 247.726822,121.653778 
	C249.342224,116.204765 251.289078,115.373505 255.243652,118.745445 
z"/>
</svg>