<svg version="1.1" id="Layer_1" xmlns="http://www.w3.org/2000/svg" xmlns:xlink="http://www.w3.org/1999/xlink" x="0px" y="0px" viewBox="0 0 400 400" style="enable-background:new 0 0 496 496;" xml:space="preserve" width="400" height="400"><path id="SVGCleanerId_0" style="fill:#3E77BF;" d="M199.993 4.164C89.555 4.164 0 94.054 0 204.97c0 88.703 57.297 163.967 136.8 190.516 9.993 1.851 13.638 -4.349 13.638 -9.678 0 -4.762 -0.174 -17.387 -0.271 -34.149 -55.645 12.149 -67.38 -26.916 -67.38 -26.916 -9.084 -23.2 -22.193 -29.362 -22.193 -29.362 -18.167 -12.464 1.367 -12.226 1.367 -12.226 20.064 1.413 30.626 20.703 30.626 20.703 17.858 30.684 46.826 21.813 58.22 16.671 1.8 -12.967 6.98 -21.826 12.691 -26.838 -44.4 -5.078 -91.084 -22.291 -91.084 -99.226 0 -21.916 7.787 -39.845 20.58 -53.897 -2.071 -5.078 -8.929 -25.484 1.949 -53.122 0 0 16.8 -5.393 55 20.58 15.955 -4.451 33.064 -6.678 50.078 -6.767 16.974 0.091 34.097 2.309 50.078 6.767 38.167 -25.974 54.942 -20.58 54.942 -20.58 10.903 27.638 4.045 48.045 1.98 53.122 12.826 14.051 20.567 31.974 20.567 53.897 0 77.129 -46.762 94.097 -91.316 99.078 7.18 6.2 13.574 18.445 13.574 37.187 0 26.851 -0.238 48.491 -0.238 55.078 0 5.38 3.607 11.633 13.749 9.651C342.755 368.86 400 293.647 400 204.97 400 94.054 310.445 4.163 199.993 4.163"/><g><path id="SVGCleanerId_0_1_" style="fill:#3E77BF;" d="M199.993 4.164C89.555 4.164 0 94.054 0 204.97c0 88.703 57.297 163.967 136.8 190.516 9.993 1.851 13.638 -4.349 13.638 -9.678 0 -4.762 -0.174 -17.387 -0.271 -34.149 -55.645 12.149 -67.38 -26.916 -67.38 -26.916 -9.084 -23.2 -22.193 -29.362 -22.193 -29.362 -18.167 -12.464 1.367 -12.226 1.367 -12.226 20.064 1.413 30.626 20.703 30.626 20.703 17.858 30.684 46.826 21.813 58.22 16.671 1.8 -12.967 6.98 -21.826 12.691 -26.838 -44.4 -5.078 -91.084 -22.291 -91.084 -99.226 0 -21.916 7.787 -39.845 20.58 -53.897 -2.071 -5.078 -8.929 -25.484 1.949 -53.122 0 0 16.8 -5.393 55 20.58 15.955 -4.451 33.064 -6.678 50.078 -6.767 16.974 0.091 34.097 2.309 50.078 6.767 38.167 -25.974 54.942 -20.58 54.942 -20.58 10.903 27.638 4.045 48.045 1.98 53.122 12.826 14.051 20.567 31.974 20.567 53.897 0 77.129 -46.762 94.097 -91.316 99.078 7.18 6.2 13.574 18.445 13.574 37.187 0 26.851 -0.238 48.491 -0.238 55.078 0 5.38 3.607 11.633 13.749 9.651C342.755 368.86 400 293.647 400 204.97 400 94.054 310.445 4.163 199.993 4.163"/></g><g><path style="fill:#114C82;" d="M305.238 88.009c10.587 27.342 3.833 47.522 1.774 52.562 12.826 14.051 20.567 31.974 20.567 53.897 0 77.129 -46.762 94.097 -91.316 99.078 7.18 6.2 13.574 18.445 13.574 37.187 0 26.851 -0.238 48.491 -0.238 55.078 0 5.38 3.607 11.633 13.749 9.651C342.755 368.86 400 293.647 400 204.97c0 -23.838 -4.155 -46.691 -11.749 -67.903 -27.574 -29.033 -58.264 -48.367 -83.013 -49.058"/><path style="fill:#114C82;" d="M155.626 304.293c2.245 -4.529 4.987 -8.051 7.871 -10.6 -24.336 -2.787 -49.329 -9.284 -66.974 -27.213 13.574 22.593 35.678 32.871 59.103 37.813"/></g><path style="fill:#6CA9EA;" d="M10.413 218.505c0 -110.916 89.555 -200.807 199.993 -200.807 61.322 0 116.174 27.736 152.851 71.362C327.033 37.705 267.433 4.164 199.993 4.164 89.555 4.164 0 94.054 0 204.97c0 49.451 17.838 94.697 47.38 129.671 -23.233 -32.793 -36.967 -72.833 -36.967 -116.136"/><path style="fill:#083E66;" d="M260.251 344.273c0 -18.736 -6.393 -31 -13.574 -37.2 44.555 -4.967 91.322 -21.949 91.322 -99.071 0 -21.922 -7.742 -39.838 -20.58 -53.891 2.078 -5.078 8.949 -25.491 -1.98 -53.122 0 0 -2.078 -0.638 -6.367 -0.393 4.684 20.838 -0.336 35.742 -2.058 39.974 12.826 14.051 20.567 31.974 20.567 53.897 0 77.129 -46.762 94.097 -91.316 99.078 7.18 6.2 13.574 18.445 13.574 37.187 0 26.851 -0.238 48.491 -0.238 55.078 0 4.736 2.82 10.136 10.42 10.007 0.051 -9.078 0.233 -28.349 0.233 -51.542"/><path style="fill:#114C82;" d="M94.729 341.931c4.2 8.645 18.316 29.355 55.555 24.993a2271.02 2271.02 0 0 1 -0.116 -15.264c-28.729 6.271 -45.691 -1.122 -55.438 -9.729"/><path style="fill:#6CA9EA;" d="M101.909 315.634a49.388 49.388 0 0 0 -7.18 -8.503c2.264 3.362 4.671 6.18 7.18 8.503"/></svg>